<svg xmlns="http://www.w3.org/2000/svg" width="512" height="512" viewBox="0 0 512 512" style="overflow: visible;" data-bbox="145.67190893802166 168.304103923828 220.65618212395674 198.97538579740512"><defs transform="matrix(1, 0, 0, 1, 0, 0)" data-uid="o_f6ldh1g5c_5"><linearGradient x1="0%" y1="50%" x2="100%" y2="50%" id="o_f6ldh1g5c_3" gradientUnits="objectBoundingBox" data-uid="o_f6ldh1g5c_6"><stop offset="100%" stop-color="rgb(242, 147, 36)" stop-opacity="1.00" data-uid="o_f6ldh1g5c_7"></stop><stop offset="100%" stop-color="rgb(255, 255, 255)" stop-opacity="1.00" data-uid="o_f6ldh1g5c_8"></stop></linearGradient></defs><g transform="matrix(0.04029520973563194, 0, 0, 0.04029520973563194, 155.26181030273438, 143.11964416503906)" data-uid="o_f6ldh1g5c_10"><path fill="#fff" d="M1581.361 1181.667c122.869 0 222.841-100.383 222.841-223.768s-99.972-223.756-222.841-223.756
			s-222.817 100.371-222.817 223.756S1458.493 1181.667 1581.361 1181.667z" transform="matrix(1, 0, 0, 1, 0, 0)" data-uid="o_f6ldh1g5c_11"></path><path fill="#fff" transform="matrix(1, 0, 0, 1, 0, 0)" data-type="polygon" d="M1180.511 1943.174L1118.161 2083.116L1173.489 2284.938Z" data-uid="o_f6ldh1g5c_12"></path><path fill="#f2db24" d="M3706.861 934.25c0.913 10.864 1.176 21.632 0.944 32.297
			c19.552 110.594 83.278 173.016 136.016 206.443c58.546 37.081 115.495 47.086 141.539 46.463
			c-5.025-19.962-26.913-58.252-42.295-85.153c-34.545-60.436-77.521-135.644-84.238-215.302
			c-10.404-123.62-46.616-198.758-104.692-217.287c-47.759-15.225-103.619 8.548-141.78 37.592
			C3664.869 788.756 3700.325 856.774 3706.861 934.25z" transform="matrix(1, 0, 0, 1, 0, 0)" data-uid="o_f6ldh1g5c_13"></path><path fill="#fff" d="M3880.22 2218.983l-98.077-175.488c-0.129 7.256-0.147 12.968-0.016 16.089l60.661 308.798
			L3880.22 2218.983z" transform="matrix(1, 0, 0, 1, 0, 0)" data-uid="o_f6ldh1g5c_14"></path><path fill="#1a1861" d="M1581.361 1253.81c162.651 0 294.984-132.744 294.984-295.912
			c0-163.156-132.333-295.9-294.984-295.9s-294.96 132.744-294.96 295.9C1286.401 1121.066 1418.71 1253.81 1581.361 1253.81z
			 M1581.361 734.142c122.869 0 222.841 100.371 222.841 223.756s-99.972 223.768-222.841 223.768s-222.817-100.383-222.817-223.768
			S1458.493 734.142 1581.361 734.142z" transform="matrix(1, 0, 0, 1, 0, 0)" data-uid="o_f6ldh1g5c_15"></path><path fill="#70ecec" d="M1812.163 3103.665c-17.918-34.968-20.854-74.75-8.219-112.019
			c13.8-40.675 45.418-71.221 83.901-86.294l-9.551-234.969c-0.094-2.748-0.305-7.844 14.419-880.419l0.141-9.077
			c0.681-40.134 19.586-77.228 51.876-101.78c104.131-79.24 402.569-336.245 544.132-458.797
			c-64.812-71.398-64.904-182.146 2.413-253.523c5.4-5.724 11.196-10.916 17.162-15.853c-1.046-0.135-2.018-0.514-3.072-0.621
			c-30.576-3.1-60.354 5.812-84.096 25.151l-499.342 406.979c-9.276 7.585-21.746 10.051-33.254 6.564
			c-36.424-11.061-78.46-16.439-125.006-15.723l-430.229 2.09c-201.705 2.63-286.483 155.3-348.41 266.768l-5.143 10.38
			L815.568 2021.4c-10.756 24.177-12.846 51.524-5.847 77.016l161.453 588.829c13.644 49.681 59.086 84.378 110.516 84.378
			c16.087 0 31.938-3.382 47.109-10.051c51.195-22.486 77.897-82.746 62.162-140.188l-145.789-531.633
			c-2.208-8.043-1.573-16.591 1.832-24.212l139.918-314.077c0.845-1.984 1.855-3.887 3.006-5.671
			c2.865-4.427 6.576-8.067 10.826-10.791c4.368-2.806 9.394-4.685 14.748-5.39c4.133-0.564 8.36-0.387 12.587 0.552
			c4.227 0.939 8.149 2.619 11.648 4.873c4.509 2.9 8.219 6.681 10.944 11.026c2.771 4.333 4.603 9.276 5.307 14.584
			c0.282 2.078 0.376 4.18 0.282 6.294l-15.64 762.834l19.891 72.542c14.631 53.356 5.801 108.473-20.643 152.482
			c1.104 3.758 1.597 7.761 1.386 11.906l-68.714 1390.153c-1.503 32.831 9.91 64.394 32.15 88.77
			c22.263 24.376 52.675 38.62 85.647 40.123c1.973 0.094 3.851 0.141 5.754 0.141c66.108 0 120.262-51.794 123.292-117.914
			l55.446-1214.716c0.446-10.122 5.143-19.586 12.94-26.067c7.773-6.47 18.012-9.382 27.97-8.032
			c13.856 1.902 26.161 2.924 37.645 3.135l5.918 0.047c12.588 0 26.067-1.01 42.389-3.194c1.573-0.211 3.17-0.317 4.767-0.317
			c8.431 0 16.674 2.959 23.202 8.454c7.773 6.529 12.423 16.016 12.846 26.15l50.045 1230.884
			c2.677 66.472 56.855 118.536 123.315 118.536l5.073-0.094c33.042-1.338 63.525-15.44 85.881-39.711
			c22.38-24.259 33.958-55.775 32.596-88.747l-40.582-998.415l-0.421-0.129C1860.775 3164.289 1830.128 3138.679 1812.163 3103.665z
			" transform="matrix(1, 0, 0, 1, 0, 0)" data-uid="o_f6ldh1g5c_16"></path><path fill="#1a1861" d="M901.614 2706.325c22.193 80.926 96.238 137.441 180.076 137.441
			c26.138 0 51.759-5.425 76.135-16.134c2.842-1.256 5.636-2.572 8.384-3.957l-65.708 1329.74
			c-2.396 52.217 15.687 102.238 50.913 140.846c35.25 38.608 83.416 61.176 135.574 63.56
			c108.238 5.014 199.544-78.801 204.453-186.558l53.732-1177.047c2.349 0.094 4.673 0.165 6.975 0.211l7.163 0.059
			c4.157 0 8.36-0.082 12.658-0.259l48.495 1193.016c4.274 105.279 90.109 187.755 195.411 187.755c2.724 0 5.401-0.047 8.055-0.165
			c52.229-2.113 100.512-24.447 135.949-62.878c35.438-38.444 53.755-88.371 51.642-140.588l-39.568-973.186l-73.11-22.294
			l40.582 998.415c1.362 32.972-10.216 64.487-32.596 88.747c-22.357 24.271-52.839 38.373-85.881 39.711l-5.073 0.094
			c-66.46 0-120.638-52.064-123.315-118.536l-50.045-1230.884c-0.423-10.133-5.073-19.621-12.846-26.15
			c-6.529-5.495-14.771-8.454-23.202-8.454c-1.597 0-3.194 0.106-4.767 0.317c-16.321 2.184-29.801 3.194-42.389 3.194l-5.918-0.047
			c-11.484-0.211-23.789-1.233-37.645-3.135c-9.957-1.35-20.196 1.562-27.97 8.032c-7.797 6.481-12.494 15.946-12.94 26.067
			l-55.446 1214.716c-3.029 66.119-57.184 117.914-123.292 117.914c-1.902 0-3.781-0.047-5.754-0.141
			c-32.972-1.503-63.384-15.746-85.647-40.123c-22.239-24.376-33.653-55.939-32.15-88.77l68.714-1390.153
			c0.211-4.145-0.282-8.149-1.386-11.906c26.443-44.009 35.273-99.126 20.643-152.482l-19.891-72.542l15.64-762.834
			c0.094-2.114 0-4.215-0.282-6.294c-0.704-5.307-2.536-10.251-5.307-14.584c-2.724-4.345-6.435-8.125-10.944-11.026
			c-3.499-2.255-7.421-3.934-11.648-4.873c-4.227-0.939-8.454-1.115-12.587-0.552c-5.354 0.705-10.38 2.583-14.748 5.39
			c-4.251 2.724-7.961 6.364-10.826 10.791c-1.151 1.785-2.161 3.687-3.006 5.671l-139.918 314.077
			c-3.405 7.621-4.039 16.169-1.832 24.212l145.789 531.633c15.734 57.442-10.967 117.702-62.162 140.188
			c-15.171 6.67-31.022 10.051-47.109 10.051c-51.43 0-96.872-34.698-110.516-84.378l-161.453-588.829
			c-6.998-25.492-4.908-52.839 5.847-77.016l164.318-368.877l5.143-10.38c61.928-111.467 146.705-264.137 348.41-266.768
			l430.229-2.09c46.545-0.716 88.582 4.662 125.006 15.723c11.507 3.487 23.977 1.022 33.254-6.564l499.342-406.979
			c23.742-19.339 53.52-28.251 84.096-25.151c1.054 0.107 2.026 0.486 3.072 0.621c-5.966 4.938-11.762 10.129-17.162 15.853
			c-67.317 71.377-67.225 182.125-2.413 253.523c-141.563 122.552-440.001 379.557-544.132 458.797
			c-32.291 24.553-51.195 61.646-51.876 101.78l-0.141 9.077c-14.724 872.575-14.513 877.672-14.419 880.419l9.551 234.969
			c22.336-8.749 46.974-12.249 71.816-9.482l-9.247-227.436c-0.047-11.836 4.791-306.984 14.419-877.249l0.164-9.077
			c0.305-17.883 8.83-34.498 23.414-45.583c108.483-82.548 413.13-345.089 552.528-465.853L3037 1741.306
			c0.037 1.047-0.067 2.062-0.023 3.11l32.126 326.441l-117.429 780.44c24.544-3.512 49.243-0.875 71.872 7.127l117.56-781.274
			c0.446-2.947 0.517-5.93 0.235-8.9l-32.408-328.895c-0.053-1.239 0.069-2.442 0.031-3.678l-2.09-0.593
			c3.511-12.473 0.615-26.358-9.448-35.898l-548.917-520.784c-46.005-43.387-48.142-116.117-4.767-162.111
			c21.018-22.275 49.458-35.038 80.081-35.942c30.928-0.728 59.743 10.169 82.03 31.199l428.35 404.009
			c9.441 8.912 23.014 12.106 35.344 8.231c115.119-35.379 235.217-53.391 357.311-53.532l4.18-0.023
			c150.533 0 276.29 88.347 354.07 248.767c0.352 0.728 0.728 1.432 1.127 2.137l293.011 513.832
			c14.701 25.809 18.811 55.88 11.601 84.672l-121.154 483.62c-12.799 51.137-58.499 86.844-111.103 86.844
			c-9.394 0-18.811-1.162-27.993-3.476c-29.707-7.444-54.741-26.009-70.499-52.287c-15.758-26.267-20.314-57.102-12.869-86.809
			l106.453-424.886c2.231-8.912 0.986-18.353-3.499-26.373l-164.952-295.16c-9.746-17.378-31.727-23.59-49.082-13.891
			c-9.181 5.13-15.14 13.696-17.397 23.176c-7.485 31.429-9.317 149.065-8.271 158.133c0.117 0.939 0.258 1.867 0.446 2.783
			l90.659 461.53l-24.34 97.145c-12.141 48.412-4.673 98.645 20.971 141.445c15.761 26.28 37.256 47.768 62.667 63.291
			l97.165 494.656c2.583 25.198-5.26 49.446-22.169 68.421c-17.167 19.281-40.862 29.907-66.695 29.907h-34.263h-0.611h-743.107
			h-8.431h-65.239c-19.539 0-35.038-6.259-46.005-18.588c-15.781-17.719-22.592-47.25-18.834-79.823l27.246-181.071l-78.258 35.327
			l-20.497 136.221c-6.294 54.201 6.998 104.258 36.471 137.335c24.893 27.958 59.438 42.741 99.878 42.741h37.199l-7.045 653.562
			c-2.419 52.499 10.967 101.475 37.692 137.922c29.754 40.557 74.961 64.217 127.049 66.589c1.738 0.094 10.732 0.117 17.59 0.117
			c1.879 0 3.616 0 4.979-0.012h2.419c99.314 0 172.162-76.805 177.164-186.769l30.648-671.411h34.941l27.948 687.392
			c4.344 107.041 85.036 187.755 187.708 187.755c2.701 0 5.401-0.047 8.055-0.165c52.393-2.113 97.365-25.633 126.65-66.225
			c25.927-35.931 39.007-84.66 36.917-135.621l2.795-673.137c45.63-0.293 89.146-19.973 119.51-54.072
			c30.623-34.369 45.136-80.292 39.829-126.004c-0.117-0.939-0.258-1.867-0.446-2.795l-89.56-455.912
			c6.322 0.649 12.658 1.177 19.013 1.177c85.764 0 160.232-58.17 181.086-141.457l121.155-483.608
			c11.766-46.921 5.025-95.909-18.928-137.946l-292.424-512.811c-90.531-185.947-239.115-288.338-418.44-288.338l-4.626 0.023
			c-121.789 0.141-242.051 17.179-357.827 50.691l-413.226-389.731c-36.306-34.263-84.331-52.393-133.648-50.831
			c-7.534 0.222-14.949 1.027-22.291 2.118c-25.482-17.547-55.069-28.582-86.722-31.814c-49.504-5.084-98.281 9.488-136.983 40.991
			l-484.923 395.237c-38.796-9.675-81.772-14.325-127.777-13.632l-430.205 2.09c-243.835 3.182-348.363 191.419-411.888 305.88
			l-171.246 382.932c-17.543 39.371-20.924 83.932-9.511 125.452L901.614 2706.325z M1180.511 1943.174l-7.022 341.764
			l-55.329-201.822L1180.511 1943.174z M3782.143 2043.495l98.077 175.488l-37.432 149.4l-60.661-308.798
			C3781.997 2056.463 3782.014 2050.752 3782.143 2043.495z M3700.896 4302.763l-5.073 0.094
			c-64.206 0-112.841-49.845-115.612-118.536l-27.829-684.468h245.707l-2.764 674.44c1.479 36.506-6.787 69.22-23.296 92.105
			C3755.496 4289.283 3731.589 4301.518 3700.896 4302.763z M3237.413 4285.89h-2.583c-5.12 0.012-16.228 0.047-18.881-0.023
			c-30.975-1.409-55.328-13.926-72.401-37.199c-17.002-23.191-25.457-55.845-23.766-93.208l7.105-655.606h246.14l-30.498 668.123
			C3340.039 4222.377 3311.036 4285.89 3237.413 4285.89z" transform="matrix(1, 0, 0, 1, 0, 0)" data-uid="o_f6ldh1g5c_17"></path><path fill="#fff" d="M3798.089 3499.853h-245.707l27.829 684.468c2.771 68.691 51.407 118.536 115.612 118.536
			l5.073-0.094c30.694-1.245 54.601-13.479 71.133-36.365c16.51-22.885 24.776-55.599 23.296-92.105L3798.089 3499.853z" transform="matrix(1, 0, 0, 1, 0, 0)" data-uid="o_f6ldh1g5c_18"></path><path fill="#f24863" d="M3104.141 2929.166c17.284 35.355 19.492 75.184 6.153 112.16
			c-13.339 37.011-40.44 66.319-76.323 82.511l-54.032 24.391l-27.246 181.071c-3.757 32.573 3.053 62.104 18.834 79.823
			c10.967 12.329 26.467 18.588 46.005 18.588h65.239h8.431h743.107h0.611h34.263c25.833 0 49.528-10.626 66.695-29.907
			c16.909-18.975 24.752-43.222 22.169-68.421l-97.165-494.656c-25.411-15.523-46.906-37.011-62.667-63.291
			c-25.645-42.8-33.113-93.032-20.971-141.445l24.34-97.145l-90.659-461.53c-0.188-0.916-0.329-1.844-0.446-2.783
			c-1.046-9.068 0.785-126.704 8.271-158.133c2.258-9.48 8.217-18.046 17.397-23.176c17.355-9.699 39.336-3.487 49.082 13.891
			l164.952 295.16c4.485 8.02 5.73 17.46 3.499 26.373l-106.453 424.886c-7.445 29.708-2.889 60.542 12.869 86.809
			c15.758 26.279 40.792 44.843 70.499 52.287c9.182 2.313 18.6 3.476 27.993 3.476c52.604 0 98.304-35.708 111.103-86.844
			l121.154-483.62c7.21-28.792 3.1-58.863-11.601-84.672l-293.011-513.832c-0.399-0.705-0.775-1.409-1.127-2.137
			c-77.78-160.42-203.537-248.767-354.07-248.767l-4.18 0.023c-122.094 0.141-242.192 18.153-357.311 53.532
			c-12.329 3.875-25.903 0.681-35.344-8.231l-428.35-404.009c-22.286-21.03-51.101-31.927-82.03-31.199
			c-30.623 0.904-59.063 13.668-80.081 35.942c-43.375 45.994-41.238 118.724 4.767 162.111l548.917 520.784
			c10.063 9.54 12.959 23.425 9.448 35.898l2.09 0.593c0.038 1.236-0.084 2.44-0.031 3.678l32.408 328.895
			c0.282 2.971 0.211 5.953-0.235 8.9l-117.56 781.274C3057.896 2870.573 3087.438 2895.03 3104.141 2929.166z" transform="matrix(1, 0, 0, 1, 0, 0)" data-uid="o_f6ldh1g5c_19"></path><path fill="#fff" d="M3373.027 3499.853h-246.14l-7.105 655.606c-1.691 37.363 6.763 70.018 23.766 93.208 17.073 23.272 41.426 35.79 72.401 37.199 2.654.07 13.762.035 18.881.023h2.583c73.623 0 102.625-63.513 105.115-117.914L3373.027 3499.853zM3176.871 978.881c5.167 61.47 33.864 117.233 80.809 157.038 46.921 39.77 106.406 58.839 167.583 53.696 126.298-10.638 220.375-122.481 209.689-249.319-10.122-120.274-110.915-211.521-229.04-211.521-6.435 0-12.869.27-19.375.81-61.153 5.155-116.646 33.911-156.24 80.961C3190.656 857.645 3171.681 917.424 3176.871 978.881z" transform="matrix(1, 0, 0, 1, 0, 0)" data-uid="o_f6ldh1g5c_20"></path><path fill="#1a1861" d="M3211.017 1190.943c55.047 46.675 123.315 71.65 194.542 71.65c8.548 0 17.143-0.364 25.762-1.092
			c108.67-9.151 198.888-75.46 244.487-166.783c65.999 124.458 187.863 179.725 266.527 193.097
			c12.775 2.172 26.631 3.722 40.158 3.722c29.895 0 58.17-7.562 69.466-32.784c19.915-44.491-9.276-95.58-46.264-160.256
			c-32.619-57.09-69.607-121.789-74.961-185.548c-16.51-195.893-93.232-260.38-154.69-279.966
			c-77.131-24.613-166.019 10.948-223.528 62.016c-50.698-28.386-110.01-42.495-172.039-37.299
			c-80.41 6.775-153.351 44.561-205.392 106.395c-51.994 61.799-76.91 140.224-70.124 220.833
			C3111.75 1065.55 3149.418 1138.714 3211.017 1190.943z M3386.537 729.586c6.505-0.54 12.94-0.81 19.375-0.81
			c118.125 0 218.919 91.247 229.04 211.521c10.685 126.838-83.392 238.681-209.689 249.319
			c-61.176 5.143-120.661-13.926-167.583-53.696c-46.945-39.806-75.642-95.569-80.809-157.038
			c-5.19-61.458 13.785-121.237 53.426-168.334C3269.892 763.497 3325.385 734.741 3386.537 729.586z M3754.134 701.71
			c58.076 18.529 94.289 93.666 104.692 217.287c6.716 79.658 49.692 154.866 84.238 215.302
			c15.382 26.901 37.269 65.192 42.295 85.153c-26.044 0.622-82.993-9.382-141.539-46.463
			c-52.738-33.427-116.464-95.849-136.016-206.443c0.232-10.665-0.031-21.432-0.944-32.297
			c-6.536-77.476-41.991-145.494-94.506-194.947C3650.515 710.259 3706.375 686.485 3754.134 701.71z" transform="matrix(1, 0, 0, 1, 0, 0)" data-uid="o_f6ldh1g5c_21"></path><path fill="#fff" d="M2421.623 2901.408c89.968 18.259 177.986-39.958 196.28-129.738
			c8.854-43.481 0.211-87.807-24.33-124.806c-24.541-37.011-62.045-62.268-105.631-71.11c-11.131-2.266-22.263-3.358-33.207-3.358
			c-77.474 0-147.058 54.424-163.073 133.096c-8.854 43.481-0.211 87.807 24.306 124.806
			C2340.508 2867.309 2378.036 2892.566 2421.623 2901.408z" transform="matrix(1, 0, 0, 1, 0, 0)" data-uid="o_f6ldh1g5c_22"></path><path fill="#1a1861" d="M2407.25 2972.118c15.993 3.241 31.891 4.802 47.602 4.791
			c111.033 0 210.77-78.038 233.737-190.844c12.705-62.397 0.305-125.992-34.874-179.066
			c-35.203-53.062-88.958-89.275-151.402-101.956c-129.022-26.161-255.131 57.29-281.34 186.053
			c-12.705 62.397-0.329 125.992 34.874 179.066C2291.027 2923.236 2344.806 2959.437 2407.25 2972.118z M2291.662 2705.492
			c16.016-78.672 85.599-133.096 163.073-133.096c10.944 0 22.075 1.092 33.207 3.358c43.586 8.842 81.091 34.099 105.631 71.11
			c24.541 36.999 33.183 81.325 24.33 124.806c-18.294 89.78-106.312 147.997-196.28 129.738
			c-43.587-8.842-81.114-34.099-105.655-71.11C2291.45 2793.299 2282.808 2748.972 2291.662 2705.492z" transform="matrix(1, 0, 0, 1, 0, 0)" data-uid="o_f6ldh1g5c_23"></path><path fill="#f2db24" d="M3004.287 3058.082c17.942-8.09 31.492-22.732 38.138-41.215c6.646-18.447 5.542-38.326-3.1-55.998
			c-16.909-34.58-61.129-49-98.61-32.056l-334.648 151.073c-4.556 2.055-9.488 3.147-14.49 3.194l-242.544 2.43
			c-3.945-0.176-7.374-0.493-10.873-1.573l-372.199-113.487c-7.75-2.36-15.617-3.487-23.343-3.487
			c-31.398 0-60.425 18.588-70.335 47.849c-6.317 18.611-4.861 38.479 4.086 55.927c8.971 17.484 24.283 30.283 43.093 36.025
			l350.125 106.759c16.392 4.99 27.007 20.854 25.386 37.927c-0.517 5.472-0.822 11.026-0.798 16.638
			c6.763 372.211 6.575 376.415 6.529 377.801l-57.137 584.402c-0.61 17.073 6.2 35.402 19.257 49.493
			c13.104 14.114 30.905 22.298 50.186 23.026l3.687 0.047c38.35-0.388 69.654-30.776 71.11-69.196l41.074-453.02
			c1.315-21.406 18.67-38.138 40.369-38.455c21.793 0.293 39.594 15.922 41.473 37.316l53.285 452.022
			c2.982 38.995 34.451 68.116 71.955 68.116c1.785-0.023 3.687-0.047 5.519-0.2c19.21-1.433 36.706-10.251 49.27-24.823
			c12.564-14.56 18.67-33.136 17.238-52.288l-79.94-584.836c-0.705-8.501-2.654-205.697-4.204-370.004
			c0-3.382-0.258-6.376-0.469-9.359c-1.104-14.595 6.599-30.435 19.68-36.987c0.939-0.47 2.02-0.939 3.076-1.362L3004.287 3058.082z
			" transform="matrix(1, 0, 0, 1, 0, 0)" data-uid="o_f6ldh1g5c_24"></path><path fill="#1a1861" d="M2979.938 3148.229l54.032-24.391c35.884-16.192 62.984-45.5 76.323-82.511
			c13.339-36.976 11.131-76.805-6.153-112.16c-16.703-34.136-46.245-58.593-80.596-70.741c-22.629-8.002-47.328-10.64-71.872-7.127
			c-13.737 1.967-27.419 5.803-40.642 11.761l-327.744 147.962l-229.416 2.29l-366.869-111.855
			c-9.069-2.767-18.216-4.568-27.341-5.585c-24.842-2.767-49.479 0.732-71.816 9.482c-38.483 15.073-70.101 45.619-83.901 86.294
			c-12.634 37.269-9.699 77.051 8.219 112.019c17.965 35.015 48.612 60.624 86.257 72.096l0.421 0.129l73.11 22.294l250.197 76.293
			c1.832 101.815 6.223 345.792 6.435 368.195l-56.973 582.711c-1.479 38.479 12.118 75.22 38.326 103.471
			c26.185 28.228 61.81 44.585 100.512 46.053c1.855 0.07 3.71 0.094 5.613 0.094c0.399 0 0.822 0 1.221 0
			c77.028-0.775 139.683-61.646 142.501-136.701l14.09-155.335l18.341 155.488c5.66 75.043 68.644 133.343 143.723 133.331
			c0.493 0 0.986 0 1.479 0c3.123-0.035 6.27-0.165 9.417-0.399c38.42-2.865 73.435-20.501 98.563-49.657
			c25.151-29.179 37.41-66.389 34.31-106.981l-79.916-585.177c-0.47-20.337-2.419-217.005-3.71-353.201l205.599-92.811
			L2979.938 3148.229z M2646.131 3219.782c-1.057 0.423-2.137 0.892-3.076 1.362c-13.081 6.552-20.783 22.392-19.68 36.987
			c0.211 2.983 0.469 5.977 0.469 9.359c1.55 164.306 3.499 361.502 4.204 370.004l79.94 584.836
			c1.432 19.151-4.674 37.728-17.238 52.288c-12.564 14.572-30.06 23.39-49.27 24.823c-1.832 0.152-3.734 0.176-5.519 0.2
			c-37.504 0-68.973-29.121-71.955-68.116l-53.285-452.022c-1.879-21.394-19.68-37.023-41.473-37.316
			c-21.699 0.317-39.054 17.05-40.369 38.455l-41.074 453.02c-1.456 38.42-32.76 68.808-71.11 69.196l-3.687-0.047
			c-19.281-0.728-37.082-8.913-50.186-23.026c-13.057-14.09-19.867-32.42-19.257-49.493l57.137-584.402
			c0.047-1.385 0.235-5.589-6.529-377.801c-0.023-5.613 0.282-11.167 0.798-16.638c1.62-17.073-8.994-32.936-25.386-37.927
			l-350.125-106.759c-18.811-5.742-34.122-18.541-43.093-36.025c-8.948-17.448-10.404-37.316-4.086-55.927
			c9.91-29.261 38.937-47.849 70.335-47.849c7.726 0 15.593 1.127 23.343 3.487l372.199 113.487
			c3.499 1.08 6.928 1.397 10.873 1.573l242.544-2.43c5.002-0.047 9.934-1.139 14.49-3.194l334.648-151.073
			c37.481-16.944 81.701-2.525 98.61 32.056c8.642 17.672 9.746 37.551 3.1 55.998c-6.646 18.482-20.196 33.125-38.138 41.215
			L2646.131 3219.782z" transform="matrix(1, 0, 0, 1, 0, 0)" data-uid="o_f6ldh1g5c_25"></path><path fill="#f2db24" d="M2684.575 1741.718c-60.486-16.98-124.773 19.151-164.764 58.627
			c-10.171 10.027-27.624 11.075-37.694 0.997c-33.858-33.436-83.633-63.916-134.049-63.916c-10.593 0-21.204 1.343-31.713 4.291
			c-72.127 20.232-98.923 71.113-108.705 110.243c-12.756 50.99-13.381 92.139 89.935 195.464l202.864 178.821l206.395-182.268
			c90.222-90.281 100.139-137.267 86.437-192.008C2783.498 1812.831 2756.702 1761.951 2684.575 1741.718z" transform="matrix(1, 0, 0, 1, 0, 0)" data-uid="o_f6ldh1g5c_26"></path><path fill="#1a1861" d="M2698.598 1691.742c-73.259-20.528-147.278 13.17-198.133 56.059
			c-50.855-42.881-124.942-76.562-198.133-56.059c-74.999 21.035-126.496 73.47-145.031 147.624
			c-18.737 74.897-7.856 133.314 104.769 245.871l215.265 189.829c6.589 5.803 14.868 8.701 23.13 8.701
			c8.279 0 16.558-2.915 23.164-8.743l218.745-193.242c94.412-94.395 121.85-160.093 101.255-242.407
			C2825.094 1765.212 2773.597 1712.776 2698.598 1691.742z M2706.843 2043.978l-206.395 182.268l-202.864-178.821
			c-103.316-103.324-102.691-144.473-89.935-195.464c9.782-39.13 36.579-90.01 108.705-110.243
			c10.509-2.948 21.119-4.291 31.713-4.291c50.416 0 100.19 30.479 134.049 63.916c10.07 10.078 27.523 9.031 37.694-0.997
			c39.991-39.476 104.279-75.607 164.764-58.627c72.127 20.232 98.923 71.113 108.705 110.251
			C2806.982 1906.711 2797.065 1953.697 2706.843 2043.978z" transform="matrix(1, 0, 0, 1, 0, 0)" data-uid="o_f6ldh1g5c_27"></path></g><path text="Zâmbetul" fill="url(#o_f6ldh1g5c_3)" space="preserve" text-anchor="start" offset="0" font-scale="contain" font-size="45" font-family="Vast Shadow" transform="matrix(1.1662589311599731, 0, 0, 1.3814769983291626, 81.44787421254432, 373.80182061679125)" data-fl-textpath="" font-weight="400" font-style="normal" data-uid="o_f6ldh1g5c_28" d="M 4.09 0L 4.09-3.56L 28.74-24.3L 9.62-24.3L 9.62-19.05L 4.68-19.05L 4.68-27.36L 34.91-27.36L 34.91-23.44L 10.81-3.12L 30.7-3.12L 30.7-8.17L 35.64-8.17L 35.64 0L 4.09 0ZM 15.31-4.44L 36.72-22.59L 36.72-26.04L 37.6-26.04L 37.6-22.21L 16.68-4.44L 15.31-4.44ZM 6-16.68L 6-17.51L 11.21-17.51L 11.21-22.76L 25.11-22.76L 24.13-21.93L 12.08-21.93L 12.08-16.68L 6-16.68ZM 5.41 1.54L 37.22 1.54L 37.22-6.94L 38.1-6.94L 38.1 2.37L 5.41 2.37L 5.41 1.54ZM 48.5396875-26.21L 54.6896875-33.68L 60.2696875-33.68L 66.2296875-26.21L 61.939687500000005-26.21L 57.309687499999995-30.98L 52.8196875-26.21L 48.5396875-26.21ZM 65.0196875-23.84L 64.3596875-24.68L 69.4596875-24.68L 63.059687499999995-32.67L 64.1596875-32.67L 71.2096875-23.84L 65.0196875-23.84ZM 49.2396875-23.84L 49.8596875-24.68L 53.4396875-24.68L 57.7396875-29.11L 58.3396875-28.48L 53.8796875-23.84L 49.2396875-23.84ZM 42.9596875-10.52L 42.9596875-10.52Q 42.9596875-12.57  43.8096875-14.59Q 44.6696875-16.61  46.3496875-18.23Q 48.0296875-19.84  50.5196875-20.85Q 52.9996875-21.86  56.2296875-21.86L 56.2296875-21.86Q 57.2596875-21.86  58.439687500000005-21.71Q 59.6096875-21.56  60.7896875-21.2Q 61.9596875-20.85  63.0796875-20.27Q 64.1996875-19.69  65.1296875-18.85L 65.1296875-18.85L 65.1296875-21.2L 74.5796875-21.2L 74.5796875-17.47L 69.7396875-17.47L 69.7396875-3.3L 74.5796875-3.3L 74.5796875 0L 65.1296875 0L 65.1296875-2.86Q 64.2696875-2  63.1796875-1.34Q 62.0996875-0.68  60.8796875-0.24Q 59.659687500000004 0.2  58.3496875 0.43Q 57.0396875 0.66  55.7396875 0.66L 55.7396875 0.66Q 52.5796875 0.66  50.1896875-0.24Q 47.7896875-1.14  46.1896875-2.67Q 44.5796875-4.2  43.7696875-6.23Q 42.9596875-8.26  42.9596875-10.52ZM 71.3196875-4.61L 71.3196875-15.93L 76.15968749999999-15.93L 76.15968749999999-19.53L 77.0396875-19.53L 77.0396875-15.1L 72.1996875-15.1L 72.1996875-4.61L 71.3196875-4.61ZM 47.7196875-10.7L 47.7196875-10.7Q 47.7196875-8.88  48.3696875-7.4Q 49.0196875-5.93  50.1396875-4.9Q 51.2596875-3.87  52.7996875-3.3Q 54.3396875-2.72  56.1196875-2.72L 56.1196875-2.72Q 57.1496875-2.72  58.2196875-2.93Q 59.2796875-3.14  60.2796875-3.57Q 61.2796875-4  62.169687499999995-4.65Q 63.059687499999995-5.3  63.7096875-6.19Q 64.3596875-7.08  64.7396875-8.22Q 65.1296875-9.36  65.1296875-10.77L 65.1296875-10.77Q 65.1296875-12.33  64.3996875-13.72Q 63.6796875-15.12  62.4596875-16.17Q 61.2396875-17.23  59.6096875-17.84Q 57.9896875-18.46  56.1796875-18.46L 56.1796875-18.46Q 54.3796875-18.46  52.8296875-17.91Q 51.2796875-17.36  50.1496875-16.35Q 49.0196875-15.34  48.3696875-13.9Q 47.7196875-12.46  47.7196875-10.7ZM 49.2396875-10.59L 49.2396875-10.59Q 49.2396875-11.98  49.7596875-13.13Q 50.2696875-14.28  51.199687499999996-15.13Q 52.1196875-15.97  53.3896875-16.45Q 54.6696875-16.92  56.1796875-16.92L 56.1796875-16.92Q 57.3296875-16.92  58.2496875-16.67Q 59.169687499999995-16.41  59.8496875-16.05Q 60.5296875-15.69  60.9696875-15.3Q 61.409687500000004-14.92  61.5896875-14.63L 61.5896875-14.63Q 60.3996875-15.29  59.1496875-15.69Q 57.8996875-16.08  56.1796875-16.08L 56.1796875-16.08Q 54.7996875-16.08  53.6896875-15.63Q 52.5796875-15.18  51.7896875-14.41Q 50.9996875-13.65  50.5696875-12.63Q 50.1396875-11.62  50.1396875-10.5L 50.1396875-10.5Q 50.1396875-9.45  50.3796875-8.53Q 50.6296875-7.6  51.159687500000004-6.82Q 51.699687499999996-6.04  52.5696875-5.39Q 53.4396875-4.75  54.6696875-4.26L 54.6696875-4.26Q 53.2796875-4.5  52.2596875-5.09Q 51.2396875-5.67  50.5696875-6.5Q 49.8996875-7.34  49.5696875-8.38Q 49.2396875-9.43  49.2396875-10.59ZM 66.4496875 1.54L 76.15968749999999 1.54L 76.15968749999999-2.07L 77.0396875-2.07L 77.0396875 2.37L 66.4496875 2.37L 66.4496875 1.54ZM 45.7896875-0.94L 45.7896875-0.94Q 46.6896875-0.22  47.8296875 0.36Q 48.9796875 0.94  50.2696875 1.35Q 51.5696875 1.76  52.9696875 1.98Q 54.3596875 2.2  55.7696875 2.2L 55.7696875 2.2Q 58.2096875 2.2  60.3296875 1.59Q 62.449687499999996 0.99  64.0896875-0.09L 64.0896875-0.09L 64.0896875 0.92Q 62.449687499999996 1.91  60.2796875 2.47Q 58.1196875 3.03  55.7896875 3.03L 55.7896875 3.03Q 54.1796875 3.03  52.6496875 2.78Q 51.1096875 2.53  49.7896875 2.02Q 48.4696875 1.52  47.4396875 0.77Q 46.409687500000004 0.02  45.7896875-0.94ZM 83.23271484375 0L 83.23271484375-3.3L 88.06271484375-3.3L 88.06271484375-17.47L 83.23271484375-17.47L 83.23271484375-21.2L 92.79271484375-21.2L 92.79271484375-17.91Q 93.45271484375-18.74  94.37271484375-19.47Q 95.29271484375-20.19  96.45271484375-20.72Q 97.60271484375-21.25  98.95271484375-21.56Q 100.30271484375-21.86  101.82271484374999-21.86L 101.82271484374999-21.86Q 104.92271484375-21.86  107.12271484375-20.65Q 109.33271484375-19.45  110.54271484375-16.92L 110.54271484375-16.92Q 111.35271484375-18  112.44271484375-18.91Q 113.53271484375-19.82  114.83271484375-20.48Q 116.12271484375-21.14  117.61271484375-21.5Q 119.09271484375-21.86  120.72271484375-21.86L 120.72271484375-21.86Q 122.98271484375-21.86  124.80271484375001-21.2Q 126.63271484375-20.54  127.91271484375-19.19Q 129.20271484375002-17.84  129.89271484375-15.79Q 130.58271484375-13.73  130.58271484375-10.94L 130.58271484375-10.94L 130.58271484375-3.3L 135.41271484375-3.3L 135.41271484375 0L 122.12271484375 0L 122.12271484375-3.3L 125.86271484375-3.3L 125.86271484375-8.96Q 125.86271484375-11.03  125.68271484375-12.57Q 125.51271484374999-14.11  125.09271484375-14.94L 125.09271484375-14.94Q 124.25271484375-16.68  122.84271484375-17.4Q 121.42271484375-18.13  119.51271484374999-18.13L 119.51271484374999-18.13Q 118.41271484375-18.13  117.27271484375001-17.72Q 116.12271484375-17.31  115.07271484374999-16.59Q 114.01271484374999-15.86  113.11271484375-14.88Q 112.21271484375-13.89  111.60271484375-12.74L 111.60271484375-12.74Q 111.64271484375-12.3  111.66271484375-11.85Q 111.68271484375-11.4  111.68271484375-10.94L 111.68271484375-10.94L 111.68271484375-3.3L 115.42271484375-3.3L 115.42271484375 0L 103.22271484375 0L 103.22271484375-3.3L 106.96271484375-3.3L 106.96271484375-9.07Q 106.96271484375-10.85  106.80271484375-12.25Q 106.63271484375-13.65  106.32271484374999-14.44L 106.32271484374999-14.44Q 105.55271484375-16.44  104.08271484375-17.28Q 102.61271484375-18.13  100.61271484375-18.13L 100.61271484375-18.13Q 99.51271484375-18.13  98.39271484375-17.73Q 97.27271484375-17.34  96.23271484375-16.63Q 95.18271484375-15.93  94.29271484375-14.96Q 93.40271484375-14  92.79271484375-12.88L 92.79271484375-12.88L 92.79271484375-3.3L 96.52271484375-3.3L 96.52271484375 0L 83.23271484375 0ZM 127.50271484375-21.2L 127.50271484375-21.2Q 129.00271484375-20.83  130.05271484375-19.94Q 131.11271484374998-19.05  131.77271484375-17.69Q 132.43271484375-16.33  132.73271484375-14.55Q 133.04271484375-12.77  133.04271484375-10.63L 133.04271484375-10.63L 133.04271484375-4.61L 132.16271484375-4.61L 132.16271484375-10.79Q 132.16271484375-12.72  131.87271484375-14.38Q 131.57271484375-16.04  130.98271484375-17.37Q 130.38271484375-18.7  129.52271484375-19.67Q 128.65271484375-20.63  127.50271484375-21.2ZM 108.61271484375-21.2L 108.61271484375-21.2Q 109.66271484375-21.07  110.46271484375-20.61Q 111.27271484375-20.15  111.71271484375-19.6L 111.71271484375-19.6L 111.07271484374999-19.01Q 110.94271484375-19.27  110.66271484375-19.6Q 110.39271484375-19.93  110.05271484375-20.25Q 109.71271484375-20.57  109.32271484374999-20.82Q 108.94271484375-21.07  108.61271484375-21.2ZM 113.27271484375001-4.61L 113.27271484375001-12.3Q 113.82271484374999-13.27  114.54271484374999-14.06Q 115.27271484375001-14.85  116.10271484375-15.41Q 116.94271484375-15.97  117.86271484375-16.28Q 118.78271484375-16.59  119.75271484375-16.59L 119.75271484375-16.59Q 121.26271484374999-16.59  122.24271484375001-16.02Q 123.22271484375-15.45  123.66271484375-14.57L 123.66271484375-14.57Q 122.98271484375-15.07  122.03271484375-15.41Q 121.09271484375-15.75  119.70271484375-15.75L 119.70271484375-15.75Q 118.85271484375-15.75  118.00271484375-15.46Q 117.16271484375-15.16  116.42271484375-14.66Q 115.68271484375-14.15  115.09271484375-13.49Q 114.50271484375-12.83  114.15271484375-12.13L 114.15271484375-12.13L 114.15271484375-4.61L 113.27271484375001-4.61ZM 94.37271484375-4.61L 94.37271484375-12.3Q 94.92271484375-13.27  95.64271484375-14.06Q 96.37271484375-14.85  97.20271484375-15.41Q 98.04271484375-15.97  98.96271484375-16.28Q 99.88271484375-16.59  100.85271484375-16.59L 100.85271484375-16.59Q 102.37271484375-16.59  103.35271484375-16.02Q 104.32271484374999-15.45  104.76271484375-14.57L 104.76271484375-14.57Q 104.08271484375-15.07  103.14271484375-15.41Q 102.19271484375-15.75  100.81271484375-15.75L 100.81271484375-15.75Q 99.95271484375-15.75  99.10271484375-15.46Q 98.26271484375-15.16  97.52271484375-14.66Q 96.79271484375-14.15  96.19271484375-13.49Q 95.60271484375-12.83  95.25271484375-12.13L 95.25271484375-12.13L 95.25271484375-4.61L 94.37271484375-4.61ZM 84.55271484375-15.1L 84.55271484375-15.93L 87.14271484375-15.93L 87.14271484375-15.1L 84.55271484375-15.1ZM 123.44271484375 1.54L 137.00271484375 1.54L 137.00271484375-2.07L 137.88271484375-2.07L 137.88271484375 2.37L 123.44271484375 2.37L 123.44271484375 1.54ZM 104.54271484375 1.54L 117.00271484375 1.54L 117.00271484375-2.07L 117.88271484375-2.07L 117.88271484375 2.37L 104.54271484375 2.37L 104.54271484375 1.54ZM 84.55271484375 1.54L 98.11271484375 1.54L 98.11271484375-2.07L 98.98271484375-2.07L 98.98271484375 2.37L 84.55271484375 2.37L 84.55271484375 1.54ZM 142.45337890625 0L 142.45337890625-3.3L 146.18337890625-3.3L 146.18337890625-27.14L 141.35337890625-27.14L 141.35337890625-30.65L 150.90337890625-30.65L 150.90337890625-17.89Q 152.51337890625-19.53  154.80337890625-20.48Q 157.10337890625-21.42  159.80337890625-21.42L 159.80337890625-21.42Q 162.90337890625-21.42  165.29337890624998-20.51Q 167.67337890625-19.6  169.31337890625-18.09Q 170.94337890625-16.59  171.79337890624998-14.66Q 172.64337890625-12.72  172.64337890625-10.66L 172.64337890625-10.66Q 172.64337890625-8.15  171.75337890625-6.08Q 170.86337890625-4  169.20337890625-2.5Q 167.54337890624998-1.01  165.20337890625-0.18Q 162.86337890625 0.66  159.96337890625 0.66L 159.96337890625 0.66Q 157.17337890625 0.66  154.84337890625-0.19Q 152.51337890625-1.03  150.90337890625-2.68L 150.90337890625-2.68L 150.90337890625 0L 142.45337890625 0ZM 152.51337890625-21.09L 152.51337890625-29.53L 153.39337890625-29.53L 153.39337890625-21.53L 152.51337890625-21.09ZM 142.67337890625-24.76L 142.67337890625-25.6L 145.26337890625-25.6L 145.26337890625-24.76L 142.67337890625-24.76ZM 143.76337890625 1.54L 152.49337890625 1.54L 152.49337890625 0.4Q 153.28337890625 0.81  154.20337890625 1.14Q 155.12337890625 1.47  156.10337890625 1.7Q 157.08337890625 1.93  158.07337890625 2.07Q 159.06337890625 2.2  159.96337890625 2.2L 159.96337890625 2.2Q 163.06337890625 2.2  165.67337890625 1.32Q 168.29337890624998 0.44  170.19337890625-1.21Q 172.09337890625-2.86  173.15337890625-5.24Q 174.22337890625-7.62  174.22337890625-10.66L 174.22337890625-10.66Q 174.22337890625-12.17  173.88337890625002-13.47Q 173.54337890624998-14.77  172.98337890625-15.85Q 172.42337890625-16.94  171.69337890625-17.82Q 170.97337890625-18.7  170.20337890625-19.4L 170.20337890625-19.4Q 171.38337890625002-18.79  172.30337890625-17.84Q 173.21337890625-16.9  173.83337890625-15.74Q 174.46337890625-14.59  174.79337890624998-13.28Q 175.12337890625-11.98  175.12337890625-10.66L 175.12337890625-10.66Q 175.12337890625-7.51  174.02337890625-4.98Q 172.92337890625-2.44  170.93337890625-0.66Q 168.94337890625 1.12  166.14337890625 2.08Q 163.34337890625 3.03  159.94337890625 3.03L 159.94337890625 3.03Q 159.19337890625 3.03  158.31337890625 2.93Q 157.43337890625 2.83  156.53337890625 2.64Q 155.63337890625002 2.44  154.78337890625 2.16Q 153.94337890625 1.89  153.26337890625 1.54L 153.26337890625 1.54L 153.26337890625 2.37L 143.76337890625 2.37L 143.76337890625 1.54ZM 150.90337890625-10.22L 150.90337890625-10.22Q 150.90337890625-8.2  151.70337890625-6.78Q 152.49337890625-5.36  153.77337890625-4.46Q 155.06337890625-3.56  156.71337890625-3.14Q 158.35337890625-2.72  160.07337890625-2.72L 160.07337890625-2.72Q 161.85337890625-2.72  163.29337890624998-3.27Q 164.73337890625-3.82  165.75337890625-4.83Q 166.77337890625-5.84  167.32337890625-7.28Q 167.87337890625-8.72  167.87337890625-10.48L 167.87337890625-10.48Q 167.87337890625-12.15  167.22337890625-13.55Q 166.57337890625-14.94  165.45337890625-15.93Q 164.33337890625-16.92  162.80337890625-17.47Q 161.28337890625-18.02  159.52337890625-18.02L 159.52337890625-18.02Q 157.69337890625-18.02  156.12337890625-17.47Q 154.55337890625-16.92  153.40337890625-15.9Q 152.25337890625-14.88  151.57337890625-13.44Q 150.90337890625-12  150.90337890625-10.22ZM 152.49337890625-10.22L 152.49337890625-10.22Q 152.49337890625-11.54  152.98337890625-12.68Q 153.48337890625-13.82  154.39337890625-14.67Q 155.30337890625-15.51  156.60337890625-16Q 157.89337890625-16.48  159.52337890625-16.48L 159.52337890625-16.48Q 161.25337890625-16.48  162.64337890625-15.99Q 164.02337890625-15.49  164.86337890625-14.37L 164.86337890625-14.37Q 163.41337890625-15.07  162.18337890625-15.36Q 160.95337890625-15.64  159.52337890625-15.64L 159.52337890625-15.64Q 158.09337890625-15.64  156.96337890625-15.22Q 155.83337890625-14.79  155.04337890624998-14.04Q 154.24337890625-13.29  153.83337890625-12.32Q 153.41337890625-11.34  153.41337890625-10.22L 153.41337890625-10.22Q 153.41337890625-8.44  154.42337890625-6.99Q 155.43337890625-5.54  157.69337890625-4.48L 157.69337890625-4.48Q 156.49337890625-4.64  155.52337890625-5.15Q 154.55337890625-5.67  153.88337890625-6.45Q 153.21337890625-7.23  152.85337890625-8.2Q 152.49337890625-9.16  152.49337890625-10.22ZM 179.82736328125-10.2L 179.82736328125-10.2Q 179.82736328125-12.52  180.67736328125-14.63Q 181.53736328125-16.74  183.24736328125-18.35Q 184.96736328125-19.95  187.51736328125-20.91Q 190.06736328125-21.86  193.42736328125-21.86L 193.42736328125-21.86Q 196.58736328125-21.86  199.06736328125-21.02Q 201.55736328125-20.17  203.28736328125-18.57Q 205.02736328125-16.96  205.93736328125-14.64Q 206.84736328125-12.33  206.84736328125-9.36L 206.84736328125-9.36L 184.63736328125-9.36Q 184.83736328125-7.78  185.65736328125-6.55Q 186.47736328125-5.32  187.75736328125-4.47Q 189.02736328125-3.63  190.64736328125-3.19Q 192.25736328125-2.75  194.01736328125-2.75L 194.01736328125-2.75Q 195.44736328125-2.75  196.92736328125-2.98Q 198.41736328125-3.21  199.72736328125-3.6Q 201.04736328125-4  202.08736328125-4.49Q 203.11736328125-4.99  203.66736328125-5.52L 203.66736328125-5.52L 204.49736328125-5.52L 206.56736328125-3.27Q 204.29736328125-1.34  201.05736328125-0.34Q 197.81736328125 0.66  193.90736328125 0.66L 193.90736328125 0.66Q 190.50736328125 0.66  187.87736328125-0.18Q 185.24736328125-1.01  183.45736328125-2.48Q 181.66736328125-3.96  180.74736328125-5.93Q 179.82736328125-7.91  179.82736328125-10.2ZM 186.74736328125-7.82L 208.34736328125-7.82Q 208.38736328125-8.15  208.40736328125-8.54Q 208.43736328125-8.92  208.43736328125-9.36L 208.43736328125-9.36Q 208.43736328125-11.23  208.04736328125-12.93Q 207.66736328125-14.63  206.92736328125-16.09Q 206.18736328125-17.56  205.11736328125-18.76Q 204.03736328125-19.97  202.67736328125-20.83L 202.67736328125-20.83Q 204.12736328124998-20.26  205.34736328125-19.26Q 206.56736328125-18.26  207.44736328125-16.83Q 208.32736328125-15.4  208.81736328125-13.54Q 209.30736328125-11.67  209.30736328125-9.36L 209.30736328125-9.36Q 209.30736328125-9.18  209.29736328125-8.92Q 209.28736328125-8.66  209.26736328125-8.33Q 209.24736328125-8  209.21736328125002-7.66Q 209.17736328125-7.32  209.13736328125-6.99L 209.13736328125-6.99L 188.36736328125-6.99Q 188.78736328125-6.28  189.90736328125-5.55Q 191.02736328125-4.81  192.80736328125-4.31L 192.80736328125-4.31Q 191.70736328125-4.31  190.75736328125-4.57Q 189.79736328125-4.83  189.01736328125-5.3Q 188.23736328125-5.76  187.65736328125-6.41Q 187.07736328125-7.05  186.74736328125-7.82L 186.74736328125-7.82ZM 184.76736328125-12.11L 201.77736328125-12.11Q 201.42736328125-13.62  200.68736328125-14.81Q 199.94736328125-16  198.87736328124998-16.8Q 197.79736328125-17.6  196.41736328125-18.03Q 195.02736328125-18.46  193.37736328124998-18.46L 193.37736328124998-18.46Q 191.59736328125-18.46  190.13736328125-17.98Q 188.67736328125-17.51  187.57736328125-16.67Q 186.47736328125-15.82  185.76736328125-14.66Q 185.05736328125-13.49  184.76736328125-12.11L 184.76736328125-12.11ZM 187.77736328125-13.05L 186.76736328125-13.05Q 187.57736328125-14.85  189.32736328125-15.89Q 191.07736328125-16.92  193.37736328124998-16.92L 193.37736328124998-16.92Q 194.32736328125-16.92  195.21736328125002-16.77Q 196.10736328125-16.61  196.86736328125-16.29Q 197.61736328125-15.97  198.19736328125-15.51Q 198.76736328125-15.05  199.09736328125-14.46L 199.09736328125-14.46Q 197.83736328125-15.29  196.41736328125-15.69Q 194.98736328125-16.08  193.33736328125-16.08L 193.33736328125-16.08Q 191.42736328125-16.08  189.97736328125-15.29Q 188.52736328125-14.5  187.77736328125-13.05L 187.77736328125-13.05ZM 182.48736328125-0.97L 182.48736328125-0.97Q 184.61736328125 0.55  187.43736328125 1.38Q 190.25736328125 2.22  193.90736328125 2.22L 193.90736328125 2.22Q 197.46736328125002 2.22  200.57736328125 1.41Q 203.68736328125 0.59  206.18736328125-1.08L 206.18736328125-1.08L 206.78736328125-0.44Q 203.94736328125 1.47  200.81736328125 2.26Q 197.68736328125 3.05  194.25736328125 3.05L 194.25736328125 3.05Q 189.79736328125 3.05  186.86736328125 1.98Q 183.93736328125 0.9  182.48736328125-0.97ZM 218.18865234375-7.87L 218.18865234375-17.47L 213.35865234375-17.47L 213.35865234375-21.2L 218.18865234375-21.2L 218.18865234375-25.64L 222.90865234375-27.62L 222.90865234375-21.2L 233.82865234375-21.2L 233.82865234375-17.47L 222.90865234375-17.47L 222.90865234375-6.99Q 222.90865234375-5.34  223.94865234375-4.54Q 224.97865234375-3.74  226.75865234375-3.74L 226.75865234375-3.74L 232.95865234375-3.74L 232.95865234375 0L 226.75865234375 0Q 224.97865234375 0  223.41865234375-0.38Q 221.85865234375-0.77  220.68865234375-1.68Q 219.52865234375-2.59  218.85865234375-4.1Q 218.18865234375-5.6  218.18865234375-7.87L 218.18865234375-7.87ZM 224.49865234375-22.52L 224.49865234375-26.41L 225.36865234375-26.81L 225.36865234375-22.52L 224.49865234375-22.52ZM 224.44865234375-6.09L 224.44865234375-16.17L 235.41865234375-16.17L 235.41865234375-20.21L 236.29865234375-20.21L 236.29865234375-15.34L 225.32865234375-15.34L 225.32865234375-5.21Q 224.57865234375-5.41  224.44865234375-6.09L 224.44865234375-6.09ZM 214.66865234375-15.1L 214.66865234375-15.93L 217.30865234375-15.93L 217.30865234375-15.1L 214.66865234375-15.1ZM 218.05865234375-1.89L 218.05865234375-1.89Q 218.75865234375-0.9  219.62865234375-0.24Q 220.49865234375 0.42  221.56865234375 0.81Q 222.64865234375 1.21  223.91865234375 1.37Q 225.19865234375 1.54  226.71865234375 1.54L 226.71865234375 1.54L 234.53865234375002 1.54L 234.53865234375002-2.75L 235.41865234375-2.75L 235.41865234375 2.37L 226.60865234375 2.37Q 224.90865234375 2.37  223.52865234375 2.15Q 222.13865234375 1.93  221.07865234375 1.44Q 220.00865234375 0.94  219.25865234375 0.12Q 218.49865234375-0.7  218.05865234375-1.89ZM 243.93923828125-4.92L 243.93923828125-4.92Q 243.49923828125-6.04  243.28923828125-7.36Q 243.07923828125-8.68  243.07923828125-10.26L 243.07923828125-10.26L 243.07923828125-17.47L 239.34923828125-17.47L 239.34923828125-21.2L 247.80923828125-21.2L 247.80923828125-12.13Q 247.80923828125-10.35  247.96923828125-8.95Q 248.13923828125-7.56  248.44923828125-6.77L 248.44923828125-6.77Q 248.83923828125-5.76  249.47923828125-5.05Q 250.11923828125-4.35  250.91923828125-3.91Q 251.71923828125-3.47  252.64923828125-3.27Q 253.58923828125-3.08  254.59923828125-3.08L 254.59923828125-3.08Q 255.66923828125-3.08  256.82923828125-3.47Q 257.97923828125-3.87  259.05923828125-4.57Q 260.13923828125-5.27  261.06923828125-6.24Q 261.99923828125-7.21  262.63923828125-8.33L 262.63923828125-8.33L 262.63923828125-17.47L 257.80923828125-17.47L 257.80923828125-21.2L 267.35923828125-21.2L 267.35923828125-3.3L 271.09923828125-3.3L 271.09923828125 0L 262.63923828125 0L 262.63923828125-3.34Q 261.93923828125-2.48  260.93923828125-1.76Q 259.93923828125-1.03  258.71923828125-0.49Q 257.49923828125 0.04  256.08923828125 0.35Q 254.68923828125 0.66  253.16923828125 0.66L 253.16923828125 0.66Q 249.89923828125 0.66  247.48923828125-0.71Q 245.07923828125-2.09  243.93923828125-4.92ZM 268.89923828125-4.61L 268.89923828125-20.08L 269.77923828125-20.08L 269.77923828125-4.61L 268.89923828125-4.61ZM 249.38923828125-10.81L 249.38923828125-20.08L 250.26923828125-20.08L 250.26923828125-11.05Q 250.26923828125-9.34  250.59923828125-8.2Q 250.92923828125-7.05  251.47923828125-6.33Q 252.02923828125-5.6  252.72923828125-5.21Q 253.42923828125-4.81  254.17923828125-4.59L 254.17923828125-4.59Q 251.86923828125-4.61  250.62923828125-6.12Q 249.38923828125-7.62  249.38923828125-10.81L 249.38923828125-10.81ZM 259.11923828125-15.1L 259.11923828125-15.93L 261.71923828125-15.93L 261.71923828125-15.1L 259.11923828125-15.1ZM 240.66923828125-15.1L 240.66923828125-15.93L 242.15923828125-15.93L 242.15923828125-15.1L 240.66923828125-15.1ZM 263.95923828125 1.54L 272.67923828125 1.54L 272.67923828125-2.07L 273.55923828125003-2.07L 273.55923828125003 2.37L 263.95923828125 2.37L 263.95923828125 1.54ZM 244.17923828125-1.47L 244.17923828125-1.47Q 245.89923828125 0.37  248.04923828125 1.29Q 250.19923828125 2.2  253.18923828125 2.2L 253.18923828125 2.2Q 255.84923828125 2.2  257.94923828125 1.51Q 260.04923828125 0.81  261.75923828125-0.37L 261.75923828125-0.37L 261.75923828125 0.64Q 259.82923828125 1.89  257.73923828125 2.46Q 255.64923828125 3.03  253.20923828125 3.03L 253.20923828125 3.03Q 249.89923828125 3.03  247.56923828125 1.88Q 245.23923828125 0.73  244.17923828125-1.47ZM 278.3968359375 0L 278.3968359375-3.3L 283.2268359375-3.3L 283.2268359375-27.36L 278.3968359375-27.36L 278.3968359375-30.65L 287.9468359375-30.65L 287.9468359375-3.3L 292.7868359375-3.3L 292.7868359375 0L 278.3968359375 0ZM 289.4868359375-4.61L 289.4868359375-29.53L 290.3668359375-29.53L 290.3668359375-4.61L 289.4868359375-4.61ZM 279.7168359375-24.98L 279.7168359375-25.82L 282.3068359375-25.82L 282.3068359375-24.98L 279.7168359375-24.98ZM 279.7168359375 1.54L 294.3668359375 1.54L 294.3668359375-2.07L 295.2468359375-2.07L 295.2468359375 2.37L 279.7168359375 2.37L 279.7168359375 1.54Z" stroke-width="1" stroke="url(#o_f6ldh1g5c_3)"></path></svg>