<svg xmlns="http://www.w3.org/2000/svg" width="512" height="512" viewBox="0 0 512 512" style="" data-svgdocument="" id="_15WCM7OkzYHscDIcxQj7Q" class="fl-svgdocument" x="0" y="0" overflow="hidden" data-bbox="86.38574081980204 124.62714097496703 341.2714243628837 241.8917475625345"><path id="_EBUNmaigiT7s5eB07bcQj" fill="#ff9f22" transform="matrix(0.7669615745544434, 0, 0, 0.7669615745544434, 257.705078125, 257.1850280761719)" text="Zâmbetul" text-anchor="middle" font-size="100" letter-spacing="9" side="left" offset="0.5" dx="0" dy="0" space="preserve" href="" font-family="Baloo Bhai" font-scale="contain" x="0" y="0" data-fl-textpath="" path="M-278.1 0C-124.91868061032034 187.11578779601348 116.47934068366857 187.99532568905335 276.7598543848518 2.321682335529374" font-style="normal" font-weight="400" stroke-width="1" stroke="#2e4c89" d="M-211.12156614355558 41.95709324574021L-176.2305442537281 34.0592079918524L-195.81611558100425 19.17413507351644Q-195.70783589478165 17.8747985083604 -195.0358726529738 15.999041220847133Q-194.363909411166 14.123283933333866 -193.09323245472268 12.451344917590788L-193.09323245472268 12.451344917590788Q-190.73340382132795 9.346315316925057 -188.31147805775458 9.051738339311981Q-185.88955229418124 8.75716136169892 -183.66030027319047 10.451397303623324L-183.66030027319047 10.451397303623324L-153.963478707849 33.02104038711646Q-152.638671743052 38.54959232284297 -156.26917733289002 43.32656093925178L-156.26917733289002 43.32656093925178Q-157.78188799532256 45.31696452942212 -160.1799300959848 46.571713143070106Q-162.577972196647 47.826461756718075 -165.34224816451027 48.488865239116585L-165.34224816451027 48.488865239116585L-199.9944216235173 56.56827577249625L-179.61268886017302 72.05843295580522Q-179.72096854639562 73.35776952096128 -180.39293178820344 75.23352680847452Q-181.06489503001131 77.10928409598779 -182.33557198645462 78.78122311173087L-182.33557198645462 78.78122311173087Q-184.69540061984935 81.88625271239661 -187.11732638342266 82.18082969000969Q-189.53925214699603 82.47540666762275 -191.7685041679868 80.78117072569833L-191.7685041679868 80.78117072569833L-223.1372647490714 56.9408506857619Q-223.643621219425 54.79758142481239 -223.0671965631647 52.22120128677855Q-222.49077190690446 49.644821148744754 -220.61501068548813 47.176720696933515L-220.61501068548813 47.176720696933515Q-219.10230002305565 45.186317106763155 -216.49407106723726 43.902906917450906Q-213.88584211141887 42.619496728138685 -211.12156614355558 41.95709324574021L-211.12156614355558 41.95709324574021ZM-148.61694590278324 93.64212546479456L-148.61694590278324 93.64212546479456Q-147.10594097938696 94.42114030513602 -145.12346139875058 95.04945130484856Q-143.1409818181142 95.67776230456107 -141.9772089783488 95.60271047297503L-141.9772089783488 95.60271047297503L-138.31125678850668 88.49209906875727L-144.9857534665408 85.72603795321567Q-147.56611626276305 84.62071997187634 -149.62424785244235 84.68470715468908Q-151.6823794421216 84.74869433750182 -152.59886748958212 86.52634718855624L-152.59886748958212 86.52634718855624Q-153.51535553704267 88.3040000396107 -152.71047960713832 90.12531130830163Q-151.90560367723396 91.94662257699255 -148.61694590278324 93.64212546479456ZM-131.31901691060546 58.344651722590655L-131.31901691060546 58.344651722590655Q-126.51935421275849 60.81916945073411 -123.06814504526565 63.83606442441375Q-119.61693587777282 66.85295939809338 -117.8481816907552 70.29628753027995Q-116.07942750373755 73.73961566246655 -116.14936446221071 77.58508167087692Q-116.21930142068386 81.43054767928727 -118.37304833221611 85.6080318792652L-118.37304833221611 85.6080318792652L-128.63771446377416 105.51774381107491Q-129.82914892547285 107.82869251744567 -131.87404988164224 108.6308022851567Q-133.91895083781168 109.43291205286774 -136.24649651734242 109.58301571603985L-136.24649651734242 109.58301571603985Q-143.8110199758174 110.07085262134925 -154.29917179703858 104.66357314133208L-154.29917179703858 104.66357314133208Q-159.00995185233285 102.23487981556165 -162.32922013709327 99.3985162891808Q-165.64848842185364 96.56215276279994 -167.44292097225116 93.38685563936818Q-169.23735352264862 90.21155851593642 -169.2833606512047 86.70009395764711Q-169.3293677797608 83.18862939935778 -167.4505672824667 79.5444410546962L-167.4505672824667 79.5444410546962Q-164.28868351872785 73.41153871855838 -158.94899228626423 72.00168144140176Q-153.60930105380064 70.59182416424515 -145.5529741729093 73.73277898535096L-145.5529741729093 73.73277898535096L-133.26780636528036 78.49141870047937L-132.9470355486692 77.86924020261033Q-131.6181278798514 75.29164356858139 -133.311830235283 73.01208827616017Q-135.00553259071455 70.73253298373898 -139.2718994332452 68.53296166983368L-139.2718994332452 68.53296166983368Q-142.64943985024863 66.79163437965866 -146.21581020113084 65.85301703465149Q-149.78218055201305 64.91439968964428 -152.9096700145183 64.65208373145917L-152.9096700145183 64.65208373145917Q-153.65272474634645 63.25642271763532 -153.60491708541994 61.19967420905272Q-153.55710942449343 59.14292570047012 -152.64062137703291 57.36527284941568L-152.64062137703291 57.36527284941568Q-151.44918691533422 55.054324143044916 -149.62787564664328 54.24944821314057Q-147.80656437795233 53.444572283236205 -144.99154724547824 53.65829767685497L-144.99154724547824 53.65829767685497Q-141.90988218534602 54.00949627759282 -138.1698957926484 55.375146958563775Q-134.42990939995073 56.74079763953471 -131.31901691060546 58.344651722590655ZM-122.61874768666455 52.816965458795806L-124.17437665752021 48.41469121642579Q-128.52529417313053 49.434258169771816 -131.03890362434674 50.16348209063329Q-133.55251307556296 50.89270601149477 -136.0202981244061 51.53304728980354L-136.0202981244061 51.53304728980354Q-139.48672118396226 49.7458955972555 -140.6832705187739 47.04760545545052Q-141.87981985358547 44.34931531364555 -140.5509121847677 41.77171867961661L-140.5509121847677 41.77171867961661Q-139.63442413730718 39.99406582856217 -137.9235246312588 39.07601197382191Q-136.21262512521042 38.15795811908167 -133.03101277375214 37.660622372278645L-133.03101277375214 37.660622372278645L-127.07190920561283 36.795125599211694Q-124.15971094400604 36.38390633276806 -122.08281639643026 36.61086235989668Q-120.0059218488545 36.83781838702529 -118.22826899780006 37.75430643448583L-118.22826899780006 37.75430643448583Q-117.07279464461466 38.35002366533518 -116.20826350137062 38.964503854081045Q-115.34373235812659 39.57898404282691 -114.6180575030983 40.57190700297018Q-113.89238264807 41.56482996311343 -113.2180645198014 43.093814940766364Q-112.54374639153278 44.6227999184193 -111.54510838081981 47.05029288927611L-111.54510838081981 47.05029288927611L-108.16443634925693 55.768724893656746Q-108.30467571856936 56.25896250879338 -108.4435320067851 56.63740528019079Q-108.58238829500087 57.01584805158818 -108.81151030686598 57.460261264351786L-108.81151030686598 57.460261264351786Q-110.23206678042983 60.21562318348617 -112.59220622882377 61.1927320741093Q-114.95234567721769 62.16984096473244 -117.70770759635207 60.749284491168595L-117.70770759635207 60.749284491168595Q-118.59653402187931 60.29104046743833 -119.23885855874153 59.79112128462505Q-119.88118309560376 59.291202101811734 -120.40756354543674 58.4572814688774Q-120.93394399526977 57.62336083594307 -121.47632124080596 56.274907305588904Q-122.01869848634215 54.92645377523475 -122.61874768666455 52.816965458795806L-122.61874768666455 52.816965458795806ZM-80.59043205921753 79.54144711713141L-80.59043205921753 79.54144711713141Q-76.61065849428326 80.52704458661394 -73.05293447194535 82.5928615632311Q-69.49521044960743 84.65867853984827 -67.23314480119289 87.58836435956732L-67.23314480119289 87.58836435956732Q-63.84033611003 86.36818028117197 -59.887792798120046 86.0077619582805Q-55.9352494862101 85.647343635389 -50.790664146173114 86.9214086569152L-50.790664146173114 86.9214086569152Q-47.10209352501452 87.83488923838681 -43.79951400244681 89.68298785510522Q-40.49693447987913 91.53108647182364 -38.24734421142173 94.3031513383197Q-35.997753942964366 97.07521620481577 -35.200987103031366 100.9297800715565Q-34.40422026309836 104.78434393829721 -35.63020735928394 109.73479398248375L-35.63020735928394 109.73479398248375L-43.20248060043017 140.31110307893Q-44.24527396769335 140.3619163960026 -46.404345286096635 140.13628164236673Q-48.56341660449992 139.91064688873084 -50.79597250678012 139.35775074731382L-50.79597250678012 139.35775074731382Q-52.9314607611351 138.82889356856708 -54.55802771181563 138.11700877806106Q-56.184594662496174 137.40512398755502 -57.13305577356613 136.24304760418434Q-58.081516884636095 135.08097122081364 -58.33985267476033 133.42016942061562Q-58.59818846488457 131.75936762041763 -57.99721439812693 129.332676422287L-57.99721439812693 129.332676422287L-52.25190231992392 106.13350856815794Q-51.53073343981475 103.22147913040115 -52.85635745849447 101.50240351801541Q-54.18198147717419 99.78332790562968 -56.99694326700575 99.0861979881908L-56.99694326700575 99.0861979881908Q-58.35589033795891 98.74965251080654 -60.06522596211952 98.9959688195956Q-61.77456158628013 99.2422851283847 -62.71937550837407 99.72944696249884L-62.71937550837407 99.72944696249884Q-62.71846371113007 100.14175651687003 -62.80260008047614 100.48149328460833Q-62.88673644982221 100.82123005234662 -62.95885333783312 101.1124329961223L-62.95885333783312 101.1124329961223L-70.96382790704484 133.43595975522263Q-72.10368892223326 133.46273410962493 -74.26276024063654 133.23709935598905Q-76.42183155903982 133.01146460235316 -78.5573198133948 132.48260742360645L-78.5573198133948 132.48260742360645Q-80.69280806774977 131.95375024485972 -82.3193750184303 131.2418654543537Q-83.94594196911085 130.52998066384765 -84.89440308018081 129.36790428047695Q-85.84286419125078 128.20582789710625 -86.101199981375 126.54502609690826Q-86.35953577149925 124.88422429671027 -85.75856170474161 122.45753309857963L-85.75856170474161 122.45753309857963L-80.0132496265386 99.25836524445057Q-79.29208074642943 96.34633580669379 -80.76330623699698 94.59120175030259Q-82.23453172756454 92.83606769391139 -84.75829057362043 92.21105466448344L-84.75829057362043 92.21105466448344Q-86.5055082362745 91.77835333641795 -87.89960195398912 91.99971888529271Q-89.29369567170374 92.22108443416748 -90.2874993163823 92.49007200976087L-90.2874993163823 92.49007200976087L-98.72517521365953 126.56081643151526Q-99.76796858092271 126.61162974858786 -101.92703989932599 126.38599499495197Q-104.08611121772927 126.1603602413161 -106.31866712000948 125.60746409989908L-106.31866712000948 125.60746409989908Q-108.45415537436443 125.07860692115236 -110.08072232504497 124.36672213064632Q-111.70728927572551 123.65483734014029 -112.65575038679549 122.49276095676959Q-113.60421149786545 121.33068457339888 -113.86254728798968 119.6698827732009Q-114.1208830781139 118.00908097300291 -113.51990901135628 115.58238977487227L-113.51990901135628 115.58238977487227L-106.26014228492402 86.26796010145395Q-105.61109029282576 83.64713360747285 -104.11018893896079 82.37049931137773Q-102.6092875850958 81.09386501528265 -100.331389149207 80.21569719773558L-100.331389149207 80.21569719773558Q-96.45415401566197 78.70339837832054 -91.19165335538347 78.46135127429258Q-85.92915269510497 78.21930417026462 -80.59043205921753 79.54144711713141ZM-23.413075298084244 129.35925016702402L-23.883083038274773 76.06132250821011Q-22.885767365915363 75.75251601594303 -20.688939258216983 75.3831296799392Q-18.492111150518596 75.01374334393539 -16.192200576123252 74.99346158403974L-16.192200576123252 74.99346158403974Q-13.992286113658132 74.97406163979171 -12.239708707936153 75.25861820174877Q-10.487131302214172 75.5431747637058 -9.27924161822265 76.43255798330627Q-8.071351934231128 77.3219412029067 -7.457707120111358 78.86659004393948Q-6.844062305991591 80.41123888497228 -6.822016914800666 82.9111416832281L-6.822016914800666 82.9111416832281L-6.735598981332238 92.71076065239087Q-4.244514339552797 91.68875414189762 -1.9981290837131143 91.26892884210484Q 0.24825617212656848 90.84910354231211  2.948151194242848 90.8252945198259L 2.948151194242848 90.8252945198259Q 7.747964566894004 90.78296736873932  12.062788245903834 92.44498319870488Q 16.37761192491366 94.10699902867043  19.70614262715953 97.32777275003096Q 23.034673329405408 100.5485464713915  24.9769266071664 105.33160534673756Q 26.919179884927395 110.11466422208363  26.974734270728526 116.41441927368827L 26.974734270728526 116.41441927368827Q 27.032052287824932 122.91416654915338  25.1248961640958 127.78117338289857Q 23.217740040366657 132.64818021664377  19.746094223532904 135.8789193460785Q 16.274448406699154 139.10965847551324  11.239194712408427 140.80412601256774Q 6.203941018117693 142.49859354962223  0.10417819037351372 142.55238430412808L 0.10417819037351372 142.55238430412808Q-6.495565197021831 142.61058413687212 -11.109054488350896 141.10120792174484Q-15.722543779679965 139.59183170661754 -18.942701121343056 137.32013923294656L-18.942701121343056 137.32013923294656Q-23.36986633135003 134.2590596516054 -23.413075298084244 129.35925016702402L-23.413075298084244 129.35925016702402ZM-0.013985106409846626 129.15290530547693L-0.013985106409846626 129.15290530547693Q 4.585836042380845 129.11234178568563  7.107959703701211 125.93997796086859Q 9.630083365021571 122.76761413605153  9.575410794868075 116.56785519637711L 9.575410794868075 116.56785519637711Q 9.519856409066943 110.26810014477248  6.8926212138041505 107.19114788177382Q 4.265386018541357 104.11419561877517 -0.13444290638887058 104.1529955072712L-0.13444290638887058 104.1529955072712Q-2.13436514499352 104.17063182022393 -3.580781505391342 104.5834025948356Q-5.027197865789164 104.99617336944728 -6.720077243422019 105.81113313089895L-6.720077243422019 105.81113313089895L-6.52784143223715 127.61028553168963Q-5.421711491471136 128.30055834307728 -3.867803586138165 128.7368727042249Q-2.3138956808051945 129.1731870653726 -0.013985106409846626 129.15290530547693ZM 69.92707977938873 134.46142344373013L 69.92707977938873 134.46142344373013Q 64.15979460682695 135.70577939696418  58.87539165017048 135.15797889342267Q 53.59098869351401 134.61017838988116  49.22934563541586 132.17531292465637Q 44.867702577317715 129.74044745943158  41.71152581677906 125.3063693978459Q 38.555349056240395 120.87229133626019  37.14226687205935 114.32300139453748L 37.14226687205935 114.32300139453748Q 35.75027546674668 107.87146204895991  36.8501012876189 102.77485698639691Q 37.94992710849111 97.67825192383391  40.72792921808473 93.9586814810148Q 43.505931327678354 90.23911103819572  47.5988918606171 87.87264234501474Q 51.69185239355586 85.50617365183375  56.28613041237627 84.51490704502018L 56.28613041237627 84.51490704502018Q 61.466912008067354 83.39709576499638  66.05651540227383 84.04365642254395Q 70.64611879648031 84.69021708009151  74.3158043833659 86.76287423780099Q 77.98548997025148 88.83553139551042  80.51866577865758 92.27871601497336Q 83.05184158706366 95.7219006344363  84.02201741500886 100.21842805711158L 84.02201741500886 100.21842805711158Q 84.73910389653356 103.54194832604549  83.26147658940711 105.70218385515665Q 81.78384928228066 107.86241938426784  78.56578290768863 109.0682588465181L 78.56578290768863 109.0682588465181L 55.20174447797506 117.8944532843757Q 56.972996738227664 120.88822438961238  60.644514858489735 121.78402274448207Q 64.3160329787518 122.67982109935176  68.61705920913687 121.75182682914331L 68.61705920913687 121.75182682914331Q 72.62483365108658 120.88710489553998  75.97127723226535 119.09091020732063Q 79.31772081344413 117.29471551910129  81.27071362062453 115.44111925909708L 81.27071362062453 115.44111925909708Q 83.04563094763012 116.08117275865423  84.5005215248571 117.6086849217142Q 85.9554121020841 119.13619708477417  86.37722767945156 121.09120900767645L 86.37722767945156 121.09120900767645Q 87.32631272852839 125.48998583420662  83.68478482553779 128.52631166187084L 83.68478482553779 128.52631166187084Q 80.91530898965647 130.86297672012577  77.13182981706211 132.2931114517314Q 73.34835064446776 133.72324618333704  69.92707977938873 134.46142344373013ZM 58.90138699205461 96.63598096701443L 58.90138699205461 96.63598096701443Q 56.55537268457185 97.14215965985541  55.01346348297933 98.29325305921286Q 53.471554281386815 99.44434645857034  52.65993245964522 100.89822747793639Q 51.84831063790363 102.35210849730244  51.63758943156529 103.98324202132775Q 51.426868225226954 105.6143755453531  51.66657009097582 107.19947586254331L 51.66657009097582 107.19947586254331L 67.79138022347601 100.85593598398816Q 67.07631285767319 98.96419639769098  64.79723595354852 97.40990927328781Q 62.51815904942386 95.8556221488846  58.90138699205461 96.63598096701443ZM 110.41941977838167 86.7763188245758L 116.0042930012429 100.80554514267929Q 116.96592680120577 103.22117351533286  118.90576679922022 103.63290253070988Q 120.84560679723467 104.04463154608686  123.63287030414264 102.93505408459126L 123.63287030414264 102.93505408459126Q 125.02650205759662 102.38026535384346  126.42057780615625 101.55621874880347Q 127.81465355471587 100.73217214376348  128.7816152959463 99.91670602491084L 128.7816152959463 99.91670602491084Q 130.02463941723377 100.60582940566178  131.12785636807018 101.61968953377962Q 132.2310733189066 102.6335496618975  132.93380571118718 104.39881654960591L 132.93380571118718 104.39881654960591Q 134.33927049574825 107.92935032502267  132.57903213338216 111.21325971896987Q 130.81879377101606 114.49716911291709  124.12936135443692 117.16015502050655L 124.12936135443692 117.16015502050655Q 115.9533884008402 120.41491557422701  110.06078456624175 118.4553952123844Q 104.1681807316433 116.49587485054182  100.83944834715646 108.1340843298179L 100.83944834715646 108.1340843298179L 85.00947656315245 68.3691249645974Q 85.92051543620249 67.68355354469156  87.69569479541511 66.60016153686361Q 89.47087415462775 65.51676952903568  91.60777617659053 64.66609347522238L 91.60777617659053 64.66609347522238Q 95.6957626533889 63.03871319836216  98.54530953913647 63.57264441670987Q 101.39485642488405 64.10657563505757  103.24415219404341 68.75201481323754L 103.24415219404341 68.75201481323754L 105.61125077856738 74.6981769613079L 117.78230142539888 69.85302204611041Q 118.74659919599551 70.65310317301088  119.8678651094179 71.98267556720273Q 120.9891310228403 73.31224796139458  121.72884933050403 75.17042363266657L 121.72884933050403 75.17042363266657Q 123.02335636891557 78.42223105739254  122.1565519121192 80.43559889106774Q 121.28974745532278 82.44896672474293  118.87411908266921 83.41060052470579L 118.87411908266921 83.41060052470579L 110.41941977838167 86.7763188245758ZM 141.7362970049498 87.04119094211563L 127.09053515983203 62.475734301212476Q 127.79584033771204 61.70596511109399  129.48891737353046 60.347292909720785Q 131.18199440934887 58.98862070834757  133.1575381252257 57.810814685838096L 133.1575381252257 57.810814685838096Q 135.0471886360644 56.68421762082904  136.70394659673278 56.0457404796862Q 138.36070455740116 55.40726333854336  139.85230363536235 55.56579469388152Q 141.34390271332353 55.72432604921969  142.6959473873277 56.72281250355793Q 144.04799206133188 57.72129895789616  145.32821599884218 59.868629083849235L 145.32821599884218 59.868629083849235L 156.3381418614307 78.33566816704567Q 158.43770911894757 81.85728957360874  161.05172997596725 82.33624151176764Q 163.66575083298687 82.81519344992657  166.92969262443557 80.86925306491092L 166.92969262443557 80.86925306491092Q 168.9052363403124 79.69144704240145  169.94585198336353 78.60534433849298Q 170.98646762641465 77.51924163458452  171.468777436718 76.76599715442872L 171.468777436718 76.76599715442872L 153.5456423115739 46.703375391085686Q 154.2509474894539 45.9336062009672  155.9440245252723 44.57493399959399Q 157.63710156109073 43.21626179822077  159.61264527696756 42.038455775711306L 159.61264527696756 42.038455775711306Q 161.50229578780625 40.91185871070225  163.15905374847466 40.27338156955941Q 164.81581170914302 39.63490442841656  166.30741078710423 39.79343578375473Q 167.7990098650654 39.9519671390929  169.15105453906958 40.95045359343114Q 170.50309921307377 41.94894004776936  171.78332315058407 44.09627017372244L 171.78332315058407 44.09627017372244L 187.35084623070918 70.20780450531183Q 189.91129410572978 74.50246475721795  187.5840034316389 78.80057109818833L 187.5840034316389 78.80057109818833Q 185.70433832031364 82.48253512154145  182.12742088721944 85.9539414182498Q 178.5505034541252 89.42534771495818  173.6545907669522 92.34425829248164L 173.6545907669522 92.34425829248164Q 169.01635769489354 95.10954199750387  164.49370937565402 96.40883110331515Q 159.9710610564145 97.7081202091264  155.8563613526461 97.2506856806869Q 151.74166164887777 96.79325115224742  148.1728301369253 94.32223078824899Q 144.60399862497283 91.85121042425052  141.7362970049498 87.04119094211563L 141.7362970049498 87.04119094211563ZM 185.63236995509658 10.933126247990714L 221.59137807554492 56.440814993888694Q 220.85229779974495 57.279719247020964  219.38236886937383 58.88729784219386Q 217.91243993900275 60.4948764373668  216.18628622795146 61.85883881434931L 216.18628622795146 61.85883881434931Q 214.46013251690016 63.22280119133184  212.90106083170264 64.07238666697002Q 211.3419891465051 64.9219721426082  209.84246614989337 64.9597978300777Q 208.34294315328162 64.99762351754718  206.87196970032423 64.18445865068767Q 205.40099624736683 63.37129378382821  203.8510390007958 61.40975547581536L 203.8510390007958 61.40975547581536L 167.89203088034742 15.902066729917365Q 168.6311111561474 15.063162476785081  170.1010400865185 13.455583881612185Q 171.5709690168896 11.848005286439275  173.29712272794092 10.484042909456761L 173.29712272794092 10.484042909456761Q 175.0232764389922 9.120080532474233  176.58234812418974 8.270495056836026Q 178.14141980938723 7.420909581197833  179.64094280599898 7.383083893728369Q 181.14046580261072 7.34525820625889  182.61143925556811 8.158423073118385Q 184.0824127085255 8.971587939977866  185.63236995509658 10.933126247990714L 185.63236995509658 10.933126247990714Z"></path><g transform="matrix(0.24989213049411774, 0, 0, 0.24989213049411774, 170.7034912109375, 124.62714385986328)"><path d="m490 267c0 135.308594-109.691406 245-245 245s-245-109.691406-245-245 109.691406-245 245-245 245 109.691406 245 245zm0 0" fill="#2e4c89" transform="matrix(1.3333333730697632, 0, 0, 1.3333333730697632, 14.666666984558105, 0)"></path><path d="m283.390625 23.21875c-4.742187-13.523438-17.613281-23.21875-32.75-23.21875-19.167969 0-34.703125 15.535156-34.703125 34.703125 0 16.714844 11.820312 30.667969 27.558594 33.960937 8.355468-18.910156 22.367187-34.785156 39.894531-45.445312zm0 0" fill="#bf7e52" transform="matrix(1.3333333730697632, 0, 0, 1.3333333730697632, 14.666666984558105, 0)"></path><path d="m250.640625 51.40625c.953125 0 1.886719-.101562 2.796875-.253906 4.066406-5.738282 8.722656-11.03125 13.875-15.792969.007812-.21875.03125-.433594.03125-.65625 0-9.210937-7.492188-16.703125-16.703125-16.703125s-16.703125 7.492188-16.703125 16.703125 7.492188 16.703125 16.703125 16.703125zm0 0" fill="#ffdd8d" transform="matrix(1.3333333730697632, 0, 0, 1.3333333730697632, 14.666666984558105, 0)"></path><path d="m250.640625 51.40625c.949219 0 1.878906-.089844 2.789063-.242188.257812-.363281.519531-.722656.785156-1.085937-5.996094-2.535156-10.214844-8.46875-10.214844-15.375 0-7.457031 4.914062-13.785156 11.671875-15.925781-1.589844-.503906-3.277344-.777344-5.03125-.777344-9.210937 0-16.703125 7.492188-16.703125 16.703125s7.492188 16.703125 16.703125 16.703125zm0 0" fill="#ffc987" transform="matrix(1.3333333730697632, 0, 0, 1.3333333730697632, 14.666666984558105, 0)"></path><path d="m420.296875 0c-15.140625 0-28.007813 9.695312-32.746094 23.21875 17.519531 10.660156 31.539063 26.535156 39.890625 45.445312 15.738282-3.292968 27.558594-17.246093 27.558594-33.960937 0-19.167969-15.535156-34.703125-34.703125-34.703125zm0 0" fill="#bf7e52" transform="matrix(1.3333333730697632, 0, 0, 1.3333333730697632, 14.666666984558105, 0)"></path><path d="m417.503906 51.152344c.90625.152344 1.839844.253906 2.792969.253906 9.210937 0 16.703125-7.492188 16.703125-16.703125s-7.492188-16.703125-16.703125-16.703125-16.703125 7.492188-16.703125 16.703125c0 .222656.023438.4375.035156.65625 5.148438 4.761719 9.804688 10.054687 13.875 15.792969zm0 0" fill="#ffdd8d" transform="matrix(1.3333333730697632, 0, 0, 1.3333333730697632, 14.666666984558105, 0)"></path><path d="m417.503906 51.152344c.90625.152344 1.839844.253906 2.792969.253906 1.816406 0 3.5625-.304688 5.203125-.84375-6.667969-2.191406-11.5-8.46875-11.5-15.859375s4.832031-13.667969 11.5-15.863281c-1.640625-.539063-3.386719-.839844-5.203125-.839844-9.210937 0-16.703125 7.492188-16.703125 16.703125 0 .222656.023438.4375.035156.65625 5.148438 4.761719 9.804688 10.054687 13.875 15.792969zm0 0" fill="#ffc987" transform="matrix(1.3333333730697632, 0, 0, 1.3333333730697632, 14.666666984558105, 0)"></path><path d="m57.570312 279.703125-.070312-4.203125v-5c0-18.746094 15.253906-34 34-34h16.742188l.195312-.746094c2.554688-9.691406 6.730469-18.84375 12.414062-27.203125l.285157-.421875-.171875-.476562c-2.691406-7.539063-4.25-15.3125-4.738282-23.101563-18.570312-.734375-37.378906 5.976563-51.554687 20.152344-14.40625 14.40625-21.109375 33.601563-20.113281 52.464844zm0 0" fill="#37c47a" transform="matrix(1.3333333730697632, 0, 0, 1.3333333730697632, 14.666666984558105, 0)"></path><path d="m57.570312 279.703125-.070312-4.203125v-5c0-8.140625 2.878906-15.613281 7.664062-21.476562 1.046876-16.140626 7.71875-31.984376 20.054688-44.320313 8.953125-8.949219 19.753906-14.917969 31.171875-17.921875-.066406-.742188-.117187-1.484375-.164063-2.226562-18.570312-.734376-37.375 5.972656-51.554687 20.148437-14.40625 14.40625-21.105469 33.601563-20.113281 52.464844zm0 0" fill="#2bb381" transform="matrix(1.3333333730697632, 0, 0, 1.3333333730697632, 14.666666984558105, 0)"></path><path d="m194.5 169.5c25.394531 0 48.804688 10.773438 65.246094 28.464844 2.894531-4.148438 6.097656-8.089844 9.601562-11.792969l.710938-.753906-.78125-.6875c-21.796875-19.097657-34.296875-46.652344-34.296875-75.601563 0-3.019531.140625-6.003906.402343-8.953125-31.464843-13.714843-69.453124-7.730469-95.195312 18.011719-24.582031 24.582031-31.144531 60.335938-19.742188 90.914062 16.167969-24.207031 43.699219-39.601562 74.054688-39.601562zm0 0" fill="#69cdff" transform="matrix(1.3333333730697632, 0, 0, 1.3333333730697632, 14.666666984558105, 0)"></path><path d="m269.347656 186.171875.710938-.753906-.78125-.6875c-16.824219-14.742188-28.101563-34.523438-32.375-56.097657l-35.628906-35.625c-11.382813-.039062-22.769532 2.183594-33.441407 6.640626l94.628907 94.625c2.148437-2.804688 4.4375-5.515626 6.886718-8.101563zm0 0" fill="#3eb7ff" transform="matrix(1.3333333730697632, 0, 0, 1.3333333730697632, 14.666666984558105, 0)"></path><path d="m268.617188 185.484375c-3.449219 3.648437-6.644532 7.578125-9.558594 11.753906 10.054687 10.574219 17.597656 23.691407 21.503906 38.515625l.195312.746094h4.742188c5.984375 0 11.609375 1.5625 16.5 4.285156v-17.785156c0-4.964844 4.035156-9 9-9h90c4.960938 0 9 4.035156 9 9v77h10.714844l6.882812-11.925781c2.351563-9.003907 3.613282-18.507813 3.613282-28.332031 0-29.109376-11.070313-55.417969-28.894532-74.257813 21.230469-18.601563 34.640625-45.914063 34.640625-76.355469 0-56.050781-45.4375-101.488281-101.488281-101.488281s-101.488281 45.4375-101.488281 101.488281c0 30.441406 13.410156 57.753906 34.636719 76.355469zm0 0" fill="#eaac68" transform="matrix(1.3333333730697632, 0, 0, 1.3333333730697632, 14.666666984558105, 0)"></path><path d="m268.617188 185.484375c-3.449219 3.648437-6.644532 7.578125-9.558594 11.753906 5.296875 5.566407 9.886718 11.847657 13.621094 18.703125 4.925781-11.4375 11.71875-21.746094 19.957031-30.457031-21.230469-18.601563-34.636719-45.914063-34.636719-76.355469 0-51.984375 39.089844-94.835937 89.476562-100.777344-3.9375-.464843-7.945312-.710937-12.007812-.710937-56.050781 0-101.488281 45.4375-101.488281 101.488281 0 30.441406 13.410156 57.753906 34.636719 76.355469zm0 0" fill="#db9652" transform="matrix(1.3333333730697632, 0, 0, 1.3333333730697632, 14.666666984558105, 0)"></path><path d="m194.5 169.5c5.90625 0 11.703125.589844 17.335938 1.707031l-61.625-61.621093c-3.503907 2.566406-6.855469 5.4375-10.023438 8.601562-3.660156 3.664062-6.898438 7.589844-9.765625 11.691406l42.320313 42.320313c7-1.761719 14.292968-2.699219 21.757812-2.699219zm0 0" fill="#fff" transform="matrix(1.3333333730697632, 0, 0, 1.3333333730697632, 14.666666984558105, 0)"></path><path d="m130.039062 197.136719c6.621094-6.941407 14.324219-12.78125 22.808594-17.277344l-32.007812-32.007813c-4.269532 11-6.191406 22.691407-5.765625 34.320313zm0 0" fill="#3eb7ff" transform="matrix(1.3333333730697632, 0, 0, 1.3333333730697632, 14.666666984558105, 0)"></path><path d="m319.5 270.5v5c0 9.617188-4.019531 18.308594-10.460938 24.5h101.960938v-77c0-5.5-4.5-10-10-10h-90c-5.5 0-10 4.5-10 10v17.253906c10.972656 5.644532 18.5 17.082032 18.5 30.246094zm0 0" fill="#60d882" transform="matrix(1.3333333730697632, 0, 0, 1.3333333730697632, 14.666666984558105, 0)"></path><path d="m319.5 270.5v5c0 5.382812-1.261719 10.476562-3.5 15.003906v9.496094h80v-67c0-2.761719-2.238281-5-5-5h-70c-2.761719 0-5 2.238281-5 5v22.496094c2.238281 4.527344 3.5 9.621094 3.5 15.003906zm0 0" fill="#37c47a" transform="matrix(1.3333333730697632, 0, 0, 1.3333333730697632, 14.666666984558105, 0)"></path><path d="m319.5 270.5v5c0 5.382812-1.261719 10.476562-3.5 15.003906v9.496094h10v-67c0-2.761719 2.238281-5 5-5h-10c-2.761719 0-5 2.238281-5 5v22.496094c2.238281 4.527344 3.5 9.621094 3.5 15.003906zm0 0" fill="#2bb381" transform="matrix(1.3333333730697632, 0, 0, 1.3333333730697632, 14.666666984558105, 0)"></path><path d="m371.519531 294.878906c-.480469 0-.957031-.113281-1.398437-.34375l-14.121094-7.425781-14.121094 7.425781c-.4375.226563-.917968.34375-1.398437.34375-.621094 0-1.238281-.195312-1.761719-.574218-.925781-.667969-1.386719-1.808594-1.195312-2.933594l2.695312-15.726563-11.421875-11.132812c-.816406-.796875-1.113281-1.988281-.761719-3.074219.355469-1.085938 1.292969-1.878906 2.425782-2.042969l15.785156-2.296875 7.0625-14.304687c.503906-1.023438 1.550781-1.671875 2.691406-1.671875s2.183594.648437 2.6875 1.671875l7.0625 14.304687 15.789062 2.296875c1.128907.164063 2.070313.957031 2.421876 2.042969.351562 1.085938.058593 2.277344-.761719 3.074219l-11.421875 11.132812 2.695312 15.726563c.191406 1.125-.269531 2.265625-1.191406 2.933594-.523438.378906-1.140625.574218-1.761719.574218zm0 0" fill="#fff" transform="matrix(1.3333333730697632, 0, 0, 1.3333333730697632, 14.666666984558105, 0)"></path><path d="m348.828125 290.425781c-.925781-.667969-1.386719-1.808593-1.195313-2.933593l2.695313-15.722657-11.421875-11.136719c-.636719-.617187-.949219-1.476562-.894531-2.335937l-7.550781 1.097656c-1.132813.164063-2.070313.957031-2.421876 2.042969-.355468 1.085938-.058593 2.277344.761719 3.074219l11.421875 11.132812-2.695312 15.726563c-.191406 1.125.269531 2.265625 1.191406 2.933594.523438.378906 1.140625.574218 1.765625.574218.476563 0 .957031-.113281 1.394531-.34375l7.347656-3.863281c-.136718-.070313-.273437-.152344-.398437-.246094zm0 0" fill="#eef6ff" transform="matrix(1.3333333730697632, 0, 0, 1.3333333730697632, 14.666666984558105, 0)"></path><path d="m352.851562 92.222656c.132813.589844.222657 1.191406.222657 1.808594 0 6.601562-7.894531 11.96875-17.605469 11.96875-9.707031 0-17.605469-5.367188-17.605469-11.96875 0-.617188.089844-1.21875.222657-1.808594-16.914063 6.871094-28.847657 23.457032-28.847657 42.84375 0 25.53125 20.695313 46.230469 46.230469 46.230469s46.234375-20.699219 46.234375-46.230469c0-19.386718-11.933594-35.972656-28.851563-42.84375zm0 0" fill="#fff" transform="matrix(1.3333333730697632, 0, 0, 1.3333333730697632, 14.666666984558105, 0)"></path><path d="m310 135.0625c0-12.632812 5.074219-24.070312 13.285156-32.410156-3.335937-2.179688-5.421875-5.234375-5.421875-8.621094 0-.617188.089844-1.21875.222657-1.808594-16.917969 6.871094-28.851563 23.457032-28.851563 42.839844 0 25.535156 20.699219 46.234375 46.234375 46.234375 3.570312 0 7.042969-.417969 10.382812-1.183594-20.535156-4.714843-35.851562-23.085937-35.851562-45.050781zm0 0" fill="#d9eafc" transform="matrix(1.3333333730697632, 0, 0, 1.3333333730697632, 14.666666984558105, 0)"></path><path d="m354.074219 94.03125c0-7.160156-8.328125-12.96875-18.605469-12.96875s-18.605469 5.808594-18.605469 12.96875c0 7.164062 8.328125 12.96875 18.605469 12.96875s18.605469-5.804688 18.605469-12.96875zm0 0" fill="#994334" transform="matrix(1.3333333730697632, 0, 0, 1.3333333730697632, 14.666666984558105, 0)"></path><path d="m330.785156 94.03125c0-5.441406 4.820313-10.097656 11.648438-12.019531-2.152344-.605469-4.5-.949219-6.964844-.949219-10.273438 0-18.605469 5.808594-18.605469 12.96875 0 7.164062 8.328125 12.96875 18.605469 12.96875 2.464844 0 4.808594-.34375 6.964844-.945312-6.828125-1.925782-11.648438-6.578126-11.648438-12.023438zm0 0" fill="#7c2e24" transform="matrix(1.3333333730697632, 0, 0, 1.3333333730697632, 14.666666984558105, 0)"></path><path d="m301.074219 82.628906c0 7.160156-5.804688 12.96875-12.96875 12.96875-7.160157 0-12.964844-5.808594-12.964844-12.96875 0-7.164062 5.804687-12.96875 12.964844-12.96875 7.164062 0 12.96875 5.804688 12.96875 12.96875zm0 0" fill="#994334" transform="matrix(1.3333333730697632, 0, 0, 1.3333333730697632, 14.666666984558105, 0)"></path><path d="m395.800781 82.628906c0 7.160156-5.808593 12.96875-12.96875 12.96875-7.164062 0-12.96875-5.808594-12.96875-12.96875 0-7.164062 5.804688-12.96875 12.96875-12.96875 7.160157 0 12.96875 5.804688 12.96875 12.96875zm0 0" fill="#994334" transform="matrix(1.3333333730697632, 0, 0, 1.3333333730697632, 14.666666984558105, 0)"></path><path d="m69.285156 300h241.199219c6.191406-6.3125 10.015625-14.960938 10.015625-24.5v-5c0-19.328125-15.671875-35-35-35h-3.972656c-10.164063-38.5625-45.273438-67-87.027344-67s-76.863281 28.4375-87.027344 67h-15.972656c-19.328125 0-35 15.671875-35 35v5c0 .851562.039062 1.691406.101562 2.527344zm0 0" fill="#fe3745" transform="matrix(1.3333333730697632, 0, 0, 1.3333333730697632, 14.666666984558105, 0)"></path><path d="m194.5 168.5c-41.753906 0-76.863281 28.4375-87.027344 67h-15.972656c-19.328125 0-35 15.671875-35 35v3h11.3125c3.433594-15.726562 17.433594-27.5 34.1875-27.5h15.972656c10.164063-38.5625 45.273438-67 87.027344-67 22.167969 0 42.460938 8.015625 58.144531 21.304688-16.507812-19.453126-41.132812-31.804688-68.644531-31.804688zm0 0" fill="#ea2a3d" transform="matrix(1.3333333730697632, 0, 0, 1.3333333730697632, 14.666666984558105, 0)"></path><path d="m162.558594 300c-3.070313-11.238281-13.347656-19.5-25.558594-19.5s-22.488281 8.261719-25.558594 19.5zm0 0" fill="#ffaf10" transform="matrix(1.3333333730697632, 0, 0, 1.3333333730697632, 14.666666984558105, 0)"></path><path d="m146.105469 300c-2.105469-2.730469-5.398438-4.5-9.105469-4.5s-6.996094 1.769531-9.105469 4.5zm0 0" fill="#ffdd8d" transform="matrix(1.3333333730697632, 0, 0, 1.3333333730697632, 14.666666984558105, 0)"></path><path d="m274.558594 300c-3.070313-11.238281-13.347656-19.5-25.558594-19.5s-22.488281 8.261719-25.558594 19.5zm0 0" fill="#ffaf10" transform="matrix(1.3333333730697632, 0, 0, 1.3333333730697632, 14.666666984558105, 0)"></path><path d="m258.101562 300c-2.105468-2.730469-5.394531-4.5-9.101562-4.5s-6.996094 1.769531-9.105469 4.5zm0 0" fill="#ffdd8d" transform="matrix(1.3333333730697632, 0, 0, 1.3333333730697632, 14.666666984558105, 0)"></path><path d="m134.503906 238.5c-1.675781 0-3.238281-.839844-4.164062-2.230469-.925782-1.394531-1.09375-3.160156-.449219-4.703125 10.804687-25.757812 36.765625-43.066406 64.609375-43.066406 3.207031 0 6.480469.238281 9.722656.714844 2.457032.355468 4.277344 2.464844 4.277344 4.945312v39.339844c0 2.761719-2.238281 5-5 5zm0 0" fill="#d9eafc" transform="matrix(1.3333333730697632, 0, 0, 1.3333333730697632, 14.666666984558105, 0)"></path><path d="m150.839844 236.269531c-.925782-1.394531-1.09375-3.160156-.449219-4.703125 9.445313-22.519531 30.472656-38.574218 54.21875-42.261718-.132813-.027344-.253906-.070313-.386719-.089844-3.242187-.476563-6.515625-.714844-9.722656-.714844-27.84375 0-53.808594 17.308594-64.609375 43.066406-.644531 1.542969-.476563 3.308594.449219 4.703125.925781 1.390625 2.488281 2.230469 4.164062 2.230469h20.5c-1.675781 0-3.238281-.839844-4.164062-2.230469zm0 0" fill="#c3ddf4" transform="matrix(1.3333333730697632, 0, 0, 1.3333333730697632, 14.666666984558105, 0)"></path><path d="m227.5 238.5c-2.761719 0-5-2.238281-5-5v-30.789062c0-1.800782.96875-3.460938 2.53125-4.351563.765625-.433594 1.617188-.648437 2.46875-.648437.886719 0 1.773438.234374 2.5625.703124 13.023438 7.765626 23.339844 19.539063 29.046875 33.152344.648437 1.542969.480469 3.308594-.449219 4.703125-.925781 1.390625-2.488281 2.230469-4.164062 2.230469zm0 0" fill="#d9eafc" transform="matrix(1.3333333730697632, 0, 0, 1.3333333730697632, 14.666666984558105, 0)"></path><path d="m233 233.5v-30.789062c0-.742188.171875-1.457032.476562-2.109376-1.117187-.757812-2.253906-1.492187-3.414062-2.1875-.789062-.46875-1.675781-.703124-2.5625-.703124-.851562 0-1.703125.214843-2.46875.648437-1.566406.890625-2.53125 2.550781-2.53125 4.351563v30.789062c0 2.761719 2.238281 5 5 5h10.5c-2.761719 0-5-2.238281-5-5zm0 0" fill="#c3ddf4" transform="matrix(1.3333333730697632, 0, 0, 1.3333333730697632, 14.666666984558105, 0)"></path><path d="m208.5 259c0 4.144531-3.359375 7.5-7.5 7.5h-16.152344c-4.144531 0-7.5-3.355469-7.5-7.5s3.355469-7.5 7.5-7.5h16.152344c4.140625 0 7.5 3.355469 7.5 7.5zm0 0" fill="#b7092b" transform="matrix(1.3333333730697632, 0, 0, 1.3333333730697632, 14.666666984558105, 0)"></path><path d="m304.5 264.5v17c0 2.761719 2.238281 5 5 5h9.226562c1.144532-3.460938 1.773438-7.15625 1.773438-11v-5c0-3.84375-.628906-7.539062-1.773438-11h-9.226562c-2.761719 0-5 2.238281-5 5zm0 0" fill="#ff9518" transform="matrix(1.3333333730697632, 0, 0, 1.3333333730697632, 14.666666984558105, 0)"></path><path d="m65.535156 293.5h11.964844c2.761719 0 5-2.238281 5-5v-10c0-2.761719-2.238281-5-5-5h-21v2c0 .84375.03125 1.679688.089844 2.511719zm0 0" fill="#fff" transform="matrix(1.3333333730697632, 0, 0, 1.3333333730697632, 14.666666984558105, 0)"></path><path d="m435 304c0-.21875-.035156-.425781-.066406-.632812l49.929687-86.476563c-.019531-.082031-.035156-.160156-.054687-.242187-1.457032-6.972657-3.214844-13.832032-5.25-20.574219l-59.421875 102.925781h-350.273438l-59.421875-102.925781c-2.058594 6.820312-3.839844 13.761719-5.304687 20.816406l49.925781 86.476563c-.027344.207031-.0625.414062-.0625.632812v117.667969c44.925781 55.121093 113.347656 90.332031 190 90.332031s145.074219-35.210938 190-90.332031zm0 0" fill="#bf7e52" transform="matrix(1.3333333730697632, 0, 0, 1.3333333730697632, 14.666666984558105, 0)"></path><path d="m75.863281 299h-6l-59.421875-102.925781c-2.058594 6.820312-3.839844 13.761719-5.304687 20.816406l49.925781 86.476563c-.027344.207031-.0625.414062-.0625.632812v117.667969c6.476562 7.945312 13.453125 15.464843 20.863281 22.535156zm0 0" fill="#a8683d" transform="matrix(1.3333333730697632, 0, 0, 1.3333333730697632, 14.666666984558105, 0)"></path><path d="m308.839844 407.839844c0 35.257812-28.582032 63.839844-63.839844 63.839844s-63.839844-28.582032-63.839844-63.839844c0-35.257813 28.582032-63.835938 63.839844-63.835938s63.839844 28.578125 63.839844 63.835938zm0 0" fill="#ffaf10" transform="matrix(1.3333333730697632, 0, 0, 1.3333333730697632, 14.666666984558105, 0)"></path><path d="m195 407.839844c0-32.917969 24.917969-60.011719 56.921875-63.460938-2.273437-.242187-4.582031-.378906-6.921875-.378906-35.257812 0-63.839844 28.582031-63.839844 63.839844 0 35.257812 28.582032 63.839844 63.839844 63.839844 2.339844 0 4.648438-.132813 6.921875-.378907-32.003906-3.453125-56.921875-30.542969-56.921875-63.460937zm0 0" fill="#ef9614" transform="matrix(1.3333333730697632, 0, 0, 1.3333333730697632, 14.666666984558105, 0)"></path><path d="m227.402344 395.5625c0 5.425781-4.394532 9.824219-9.820313 9.824219-5.421875 0-9.820312-4.398438-9.820312-9.824219 0-5.421875 4.398437-9.820312 9.820312-9.820312 5.425781 0 9.820313 4.398437 9.820313 9.820312zm0 0" fill="#db722c" transform="matrix(1.3333333730697632, 0, 0, 1.3333333730697632, 14.666666984558105, 0)"></path><path d="m282.242188 395.5625c0 5.425781-4.398438 9.820312-9.828126 9.820312-5.421874 0-9.816406-4.394531-9.816406-9.820312 0-5.421875 4.394532-9.820312 9.816406-9.820312 5.429688 0 9.828126 4.398437 9.828126 9.820312zm0 0" fill="#db722c" transform="matrix(1.3333333730697632, 0, 0, 1.3333333730697632, 14.666666984558105, 0)"></path><path d="m245 452.4375c-15.152344 0-29.222656-7.773438-36.714844-20.28125-2.128906-3.554688-.972656-8.160156 2.578125-10.289062 3.554688-2.128907 8.160157-.972657 10.289063 2.578124 4.800781 8.015626 13.9375 12.992188 23.847656 12.992188s19.050781-4.976562 23.851562-12.992188c2.128907-3.554687 6.738282-4.707031 10.289063-2.578124 3.550781 2.128906 4.707031 6.734374 2.578125 10.289062-7.496094 12.507812-21.566406 20.28125-36.71875 20.28125zm0 0" fill="#db722c" transform="matrix(1.3333333730697632, 0, 0, 1.3333333730697632, 14.666666984558105, 0)"></path><path d="m413 336c0 2.75-2.25 5-5 5h-37c-2.75 0-5-2.25-5-5v-12c0-2.75 2.25-5 5-5h37c2.75 0 5 2.25 5 5zm0 0" fill="#ffca51" transform="matrix(1.3333333730697632, 0, 0, 1.3333333730697632, 14.666666984558105, 0)"></path><path d="m386 336v-12c0-2.75 2.25-5 5-5h-20c-2.75 0-5 2.25-5 5v12c0 2.75 2.25 5 5 5h20c-2.75 0-5-2.25-5-5zm0 0" fill="#ffaf10" transform="matrix(1.3333333730697632, 0, 0, 1.3333333730697632, 14.666666984558105, 0)"></path></g></svg>